<svg width="117" height="117" viewBox="0 0 117 117" fill="none" xmlns="http://www.w3.org/2000/svg">
<g id="Monotone/Cellular structure">
<g id="Vector">
<path fill-rule="evenodd" clip-rule="evenodd" d="M37.9894 14.2251L25.2497 20.6474L24.4512 34.8724L36.3924 42.6753L48.873 36.3837L49.1322 36.253L49.1747 35.4973L49.9307 22.028L37.9894 14.2251Z" fill="#BAE7FF"/>
<path d="M79.2393 69.7544L91.979 63.3321L92.7773 49.1087V49.1069L80.8361 41.3042L68.7394 47.4023L49.1747 35.4973L49.1322 36.253L48.873 36.3837L68.0772 48.0693L67.2979 61.9516L67.5084 62.0891L49.0454 73.4978L49.0265 73.2601L36.1154 67.1265L24.3369 75.218L25.4696 89.4432L38.3807 95.5767L50.1592 87.4852L49.1269 74.5219L68.3535 62.6414L79.2393 69.7544Z" fill="#BAE7FF"/>
</g>
<path id="Fill 4" opacity="0.782971" fill-rule="evenodd" clip-rule="evenodd" d="M56.7805 89.1924L51.1875 93.0337L51.7255 99.787L57.8561 102.699L63.4491 98.8575L62.9113 92.1043L56.7805 89.1924Z" fill="#BAE7FF"/>
<path id="Fill 6" opacity="0.782971" fill-rule="evenodd" clip-rule="evenodd" d="M76.4578 25.0247L70.3967 28.0783L70.0168 34.8423L75.6981 38.5525L81.7591 35.4987L82.139 28.7348L76.4578 25.0247Z" fill="#BAE7FF"/>
<path id="Fill 8" opacity="0.782971" fill-rule="evenodd" clip-rule="evenodd" d="M89.5111 31.8148L86.4301 33.3671L86.2371 36.8053L89.1249 38.6912L92.2058 37.1389L92.3989 33.7008L89.5111 31.8148Z" fill="#BAE7FF"/>
<path id="Fill 10" opacity="0.41748" fill-rule="evenodd" clip-rule="evenodd" d="M57.9417 76.9094L54.3672 79.6751L54.9806 84.1464L59.1683 85.852L62.7428 83.0863L62.1294 78.6151L57.9417 76.9094Z" fill="#BAE7FF"/>
</g>
</svg>
