<svg width="117" height="118" viewBox="0 0 117 118" fill="none" xmlns="http://www.w3.org/2000/svg">
<g id="Monotone/Correlation">
<g id="Union">
<path d="M105.536 20.0554C105.917 16.5765 103.429 13.4448 99.9801 13.0604C97.6265 12.7981 95.4331 13.8827 94.156 15.7033C93.5277 16.561 93.1362 17.5524 92.9924 18.5776C91.8953 22.2882 87.7178 33.0362 76.3078 32.2019L76.2048 32.1913C72.8071 31.8682 69.7691 34.3589 69.3929 37.7994C69.013 41.2747 71.4928 44.4034 74.932 44.7873C78.1805 45.1501 81.1228 42.9341 81.7591 39.7583L81.7813 39.7892C81.7813 39.7892 81.7851 39.6868 81.8056 39.4991C81.8217 39.397 81.8355 39.2939 81.8469 39.1899C81.8476 39.1837 81.8483 39.1775 81.8488 39.1714C81.8492 39.1676 81.8495 39.164 81.8497 39.1604C82.2208 36.6859 84.5627 27.6633 99.0604 25.7967L99.0617 25.7976C100.48 25.8288 101.917 25.3757 103.111 24.4092C103.276 24.2762 103.432 24.1366 103.579 23.991C104.639 22.9933 105.364 21.6228 105.536 20.0554Z" fill="#91D5FF"/>
<path d="M23.8301 37.7969C30.5499 37.7969 36.01 43.2359 36.1185 49.987L36.1202 50.192C36.9693 72.8252 58.6371 78.722 66.0186 80.0765C72.6811 80.2209 78.0381 85.7136 78.0381 92.4682C78.0381 99.3138 72.5356 104.863 65.748 104.863C60.242 104.863 55.5817 101.212 54.0181 96.1787L53.97 96.231C47.7713 65.6101 28.8842 62.789 23.8846 62.5864L23.8301 62.5871C23.6287 62.5871 23.4285 62.5822 23.2295 62.5726C22.8598 62.5724 22.6596 62.5871 22.6596 62.5871L22.7146 62.5367C16.4497 61.9683 11.54 56.6584 11.54 50.192C11.54 43.3463 17.0425 37.7969 23.8301 37.7969Z" fill="#91D5FF"/>
</g>
</g>
</svg>
