<svg width="728" height="677" viewBox="0 0 728 677" fill="none" xmlns="http://www.w3.org/2000/svg">
<g clip-path="url(#clip0)">
<path opacity="0.163388" fill-rule="evenodd" clip-rule="evenodd" d="M684.705 208.365H653.478C649.564 208.365 646.362 205.163 646.362 201.248V170.01C646.362 166.095 649.564 162.892 653.478 162.892H684.705C688.619 162.892 691.821 166.095 691.821 170.01V201.248C691.821 205.163 688.619 208.365 684.705 208.365Z" fill="#597EF7"/>
<path fill-rule="evenodd" clip-rule="evenodd" d="M377.171 181.313H363.318C361.571 181.313 360.143 179.791 360.143 177.93V162.99C360.143 161.129 361.571 159.606 363.318 159.606H377.171C378.917 159.606 380.346 161.129 380.346 162.99V177.93C380.346 179.791 378.917 181.313 377.171 181.313Z" fill="#FFC540"/>
<path fill-rule="evenodd" clip-rule="evenodd" d="M684.894 267.312C683.148 267.312 681.719 265.894 681.719 264.162V250.252C681.719 248.52 683.148 247.102 684.894 247.102H698.747C700.494 247.102 701.922 248.52 701.922 250.252V264.162C701.922 265.894 700.494 267.312 698.747 267.312H684.894Z" fill="#FF7A46"/>
<path opacity="0.49707" fill-rule="evenodd" clip-rule="evenodd" d="M351.587 115.947C346.911 115.947 343.085 112.121 343.085 107.445V70.1304C343.085 65.4542 346.911 61.6283 351.587 61.6283H388.902C393.578 61.6283 397.404 65.4542 397.404 70.1304V107.445C397.404 112.121 393.578 115.947 388.902 115.947H351.587Z" fill="#ADC6FF"/>
<path fill-rule="evenodd" clip-rule="evenodd" d="M459.619 232.18C436.644 232.18 418.02 250.804 418.02 273.779C418.02 296.753 436.644 315.378 459.619 315.378C482.593 315.378 501.218 296.753 501.218 273.779C501.218 250.804 482.593 232.18 459.619 232.18Z" fill="#8BBC06"/>
<path fill-rule="evenodd" clip-rule="evenodd" d="M452.916 287.91L450.289 285.284L475.739 259.741C476.609 258.871 478.02 258.871 478.891 259.741L479.941 260.791C480.812 261.662 480.812 263.073 479.941 263.943L456.067 287.91C455.197 288.78 453.786 288.78 452.916 287.91Z" fill="white"/>
<path fill-rule="evenodd" clip-rule="evenodd" d="M458.689 285.284L456.063 287.91C455.192 288.78 453.781 288.78 452.911 287.91L442.453 277.452C441.583 276.582 441.583 275.171 442.453 274.3L443.504 273.25C444.374 272.38 445.785 272.38 446.655 273.25L458.689 285.284Z" fill="white"/>
<path d="M395.429 269.122C394.356 269.122 393.371 268.531 392.869 267.584C387.872 258.166 386.357 247.3 388.372 235.294C390.279 223.92 395.271 211.996 403.208 199.849C419.339 175.163 445.932 152.165 478.087 135.091C510.241 118.018 544.188 108.879 573.679 109.345C588.184 109.573 600.859 112.118 611.347 116.909C622.424 121.968 630.573 129.307 635.576 138.728C636.324 140.14 635.787 141.89 634.376 142.639C632.965 143.388 631.214 142.851 630.466 141.44C626.075 133.173 618.835 126.689 608.946 122.171C599.186 117.716 587.29 115.346 573.586 115.118C545.059 114.66 512.106 123.582 480.801 140.19C449.496 156.798 423.656 179.131 408.049 203.015C400.553 214.491 395.852 225.67 394.077 236.251C392.277 246.973 393.592 256.603 397.982 264.87C398.457 265.764 398.43 266.842 397.91 267.711C397.391 268.581 396.455 269.116 395.443 269.122H395.429Z" fill="#FF7946"/>
<path opacity="0.33" d="M509.671 297.97C566.772 297.97 613.062 251.68 613.062 194.579C613.062 137.477 566.772 91.1877 509.671 91.1877C452.57 91.1877 406.28 137.477 406.28 194.579C406.28 251.68 452.57 297.97 509.671 297.97Z" fill="#4E5C93"/>
<path d="M579.192 219.677C585.281 203.436 588.328 197.344 579.192 194.582C570.056 191.819 556.859 209.525 544.67 200.984C532.481 192.443 548.73 173.998 543.654 163.44C538.578 152.882 532.487 151.665 535.534 131.714C537.08 121.59 546.451 110.374 555.307 101.786C541.116 94.7942 525.503 91.1678 509.683 91.1877C505.55 91.1877 501.422 91.4328 497.318 91.9214C505.893 110.713 490.335 124.417 478.696 143.432C464.484 166.668 469.56 181.103 498.997 186.695C528.435 192.288 525.39 227.797 498.997 236.919C472.604 246.041 480.725 208.512 464.484 208.328C448.243 208.145 432.002 204.451 430.986 189.24C430.422 180.615 419.387 172.548 409.948 167.181C407.506 176.109 406.272 185.325 406.28 194.582C406.28 251.682 452.571 297.973 509.674 297.973C536.149 298.007 561.622 287.85 580.809 269.607C573.535 252.751 574.728 231.581 579.192 219.677Z" fill="#597EF7"/>
<path d="M430.986 189.24C432.002 204.451 448.243 208.145 464.484 208.328C480.725 208.512 472.604 246.07 498.997 236.933C525.39 227.797 528.435 192.288 498.997 186.709C469.56 181.131 464.484 166.676 478.696 143.446C490.324 124.431 505.882 110.716 497.319 91.9354C455.226 96.9353 420.902 127.225 409.948 167.181C419.392 172.548 430.411 180.615 430.986 189.24Z" fill="#4E5C93"/>
<path d="M430.986 189.24C432.002 204.451 448.243 208.145 464.484 208.328C480.725 208.512 472.604 246.07 498.997 236.933C525.39 227.797 528.435 192.288 498.997 186.709C469.56 181.131 464.484 166.676 478.696 143.446C490.324 124.431 505.882 110.716 497.319 91.9354C455.226 96.9353 420.902 127.225 409.948 167.181C419.392 172.548 430.411 180.615 430.986 189.24Z" fill="#E4EBF7"/>
<path d="M613.062 194.581C613.062 153.863 589.525 118.644 555.316 101.786C546.459 110.374 537.089 121.59 535.542 131.714C532.495 151.665 538.587 152.876 543.663 163.44C548.739 174.004 532.495 192.443 544.67 200.984C556.845 209.524 570.064 191.816 579.192 194.581C588.32 197.347 585.281 203.436 579.192 219.677C574.728 231.581 573.535 252.751 580.809 269.618C601.431 250.113 613.099 222.967 613.062 194.581Z" fill="#7CB305"/>
<path d="M549.007 271.557C547.677 271.56 546.515 270.656 546.193 269.365C545.871 268.075 546.471 266.731 547.647 266.108C578.966 249.487 604.789 227.171 620.395 203.297C627.906 191.825 632.593 180.632 634.368 170.059C636.168 159.337 634.856 149.707 630.466 141.44C629.717 140.029 630.254 138.278 631.665 137.529C633.076 136.781 634.827 137.317 635.575 138.728C640.575 148.147 642.09 159.01 640.09 171.019C638.18 182.392 633.188 194.316 625.254 206.46C609.123 231.149 582.53 254.145 550.372 271.218C549.952 271.442 549.483 271.559 549.007 271.557Z" fill="#FAAD14"/>
<path d="M457.492 310.159C470.119 310.159 480.355 299.923 480.355 287.296C480.355 274.669 470.119 264.432 457.492 264.432C444.865 264.432 434.629 274.669 434.629 287.296C434.629 299.923 444.865 310.159 457.492 310.159Z" fill="#FAAD14"/>
</g>
<path d="M102.629 512.966L33.626 515.283L44.2498 546.381C51.4277 566.608 65.9068 579.076 85.0001 582.591C91.8872 583.621 97.3494 583.286 102.388 582.418C97.5959 583.976 89.3976 587.427 86.2671 593.486C81.7316 602.281 81.4457 608.887 81.9042 622.809L84.7241 646.531C84.7241 646.531 133.983 625.9 133.875 624.554C141.087 620.063 150.079 613.565 155.803 605.49C160.107 599.426 162.567 592.46 161.043 584.78C170.809 573.757 169.434 567.86 156.912 567.086C155.729 567.017 154.496 567.008 153.225 567.062C153.022 563.65 152.756 559.598 152.441 554.905C150.636 542.176 144.375 530.596 135.033 522.732C127.18 516.121 117.685 512.582 108.082 512.582C106.263 512.582 104.444 512.71 102.629 512.966Z" fill="url(#paint0_linear)"/>
<path d="M137.715 574.506C114.757 580.994 111.276 589.271 108.792 599.091C106.297 608.907 109.99 633.566 111.779 640.867C111.779 640.867 141.551 633.512 164.006 617.953C177.588 605.855 174.941 600.432 174.359 582.438C173.043 565.366 171.278 553.135 169.069 545.755C171.169 556.063 160.713 565.647 137.715 574.506Z" fill="url(#paint1_linear)"/>
<path d="M72.6262 536.823C78.7491 563.222 90.7631 574.541 112.819 576.912C118.183 578.914 157.459 576.858 173.274 599.994C174.65 599.427 173.792 583.686 170.716 552.776C167.058 536.99 165.367 526.8 156.537 517.621C147.708 508.436 129.196 503.132 117.838 501.357L66.0842 494.731L72.6262 536.823Z" fill="url(#paint2_linear)"/>
<path d="M136.3 574.94C134.373 575.468 132.869 576.01 132.401 576.163C129.892 577.001 127.397 578.016 126.357 578.539C151.627 583.03 167.748 590.326 174.719 600.432C175.242 599.323 174.684 590.228 174.556 585.81C173.25 566.771 171.342 553.362 169 545.543C169.927 555.97 161.265 566.002 136.3 574.94Z" fill="#FFB511"/>
<path fill-rule="evenodd" clip-rule="evenodd" d="M85.5206 194.925C100.964 194.925 113.484 207.444 113.484 222.888V222.959C113.484 238.403 100.964 250.922 85.5206 250.922H44.2834C42.743 250.922 41.2316 250.798 39.7589 250.558L31.7696 258.275C31.5524 258.485 31.2621 258.602 30.9601 258.602C30.3166 258.602 29.795 258.08 29.795 257.437L29.7945 246.881C21.7169 241.978 16.3203 233.099 16.3203 222.959V222.888C16.3203 207.444 28.8398 194.925 44.2834 194.925H85.5206Z" fill="#253368"/>
<path d="M78.738 127.93H137.619C159.681 127.93 177.566 145.815 177.566 167.877C177.566 189.939 159.681 207.824 137.619 207.824H78.738C56.6757 207.824 38.7907 189.939 38.7907 167.877C38.7907 145.815 56.6757 127.93 78.738 127.93Z" fill="#597EF7"/>
<path fill-rule="evenodd" clip-rule="evenodd" d="M158.321 196.204V217.117C158.321 218.036 157.575 218.782 156.656 218.782C156.225 218.782 155.811 218.614 155.5 218.315L140.133 203.487L158.321 196.204Z" fill="#597EF7"/>
<path d="M134.914 172.87C131.352 172.87 128.464 169.983 128.464 166.421C128.464 162.859 131.352 159.971 134.914 159.971C138.476 159.971 141.364 162.859 141.364 166.421C141.364 169.983 138.476 172.87 134.914 172.87Z" fill="white"/>
<path d="M108.49 172.87C104.928 172.87 102.041 169.983 102.041 166.421C102.041 162.859 104.928 159.971 108.49 159.971C112.053 159.971 114.94 162.859 114.94 166.421C114.94 169.983 112.053 172.87 108.49 172.87Z" fill="white"/>
<path d="M81.4427 172.87C77.8806 172.87 74.9929 169.983 74.9929 166.421C74.9929 162.859 77.8806 159.971 81.4427 159.971C85.0049 159.971 87.8926 162.859 87.8926 166.421C87.8926 169.983 85.0049 172.87 81.4427 172.87Z" fill="white"/>
<g clip-path="url(#clip1)">
<path fill-rule="evenodd" clip-rule="evenodd" d="M372.154 245.408C372.154 245.408 399.875 243.799 404.614 273.361C430.31 285.296 420.579 313.614 420.579 313.614C420.579 313.614 431.942 337.496 404.469 346.859C400.344 369.968 374.238 363.451 374.238 363.451C374.238 363.451 366.336 380.903 346.857 371.756C323.697 386.764 283.085 379.85 270.342 357.957C239.687 376.972 191.839 346.41 199.82 327.329C166.361 322.39 153.13 285.311 175.454 256.708C162.382 231.433 180.859 218.777 180.859 218.777C180.859 218.777 180.841 163.31 219.596 159.185C241.738 131.23 282.036 158.706 282.036 158.706C282.036 158.706 310.594 155.301 318.552 180.522C349.487 188.049 346.53 205.154 347.693 219.833C375.613 223.84 372.154 245.408 372.154 245.408Z" fill="#253368"/>
<path fill-rule="evenodd" clip-rule="evenodd" d="M287.479 211.023C265.163 212.987 259.916 195.775 259.916 195.775C259.916 195.775 252.869 171.566 249.303 185.748C247.41 193.283 236.468 182.123 230.333 189.804C226.204 194.971 234.733 202.827 221.592 216.422C213.981 224.299 240.549 233.4 222.449 247.566C222.449 247.566 232.716 267.653 211.724 272.104L207.627 294.262C205.245 307.158 214.509 319.296 227.576 320.403C240.034 321.457 250.905 312.014 251.601 299.529L253.121 272.211C284.885 274.95 290.2 231.428 287.479 211.023Z" fill="#FFC999"/>
<path fill-rule="evenodd" clip-rule="evenodd" d="M264.049 239.621C254.859 239.718 246.814 234.354 246.814 234.354C246.814 234.354 244.419 246.324 252.082 247.76C259.522 249.155 264.049 239.621 264.049 239.621Z" fill="white"/>
<path d="M245.499 234.09L245.41 234.602C245.376 234.815 245.341 235.069 245.305 235.359C245.066 237.317 245.03 239.374 245.329 241.33C245.963 245.471 248.011 248.362 251.834 249.079C255.832 249.828 259.337 248.016 262.276 244.641C263.119 243.673 263.853 242.642 264.48 241.61C264.858 240.987 265.12 240.494 265.261 240.196C265.687 239.3 265.027 238.269 264.035 238.279C260.19 238.32 256.241 237.368 252.424 235.752C251.11 235.196 249.908 234.6 248.846 234.006L248.353 233.725C247.983 233.509 247.715 233.342 247.559 233.237C246.764 232.707 245.686 233.154 245.499 234.09ZM247.845 236.999L247.881 236.535L247.536 236.348C248.68 236.988 249.969 237.627 251.378 238.223L252.154 238.543C254.984 239.673 257.885 240.461 260.793 240.791L261.762 240.882L261.478 241.304C261.102 241.843 260.693 242.373 260.252 242.879C257.875 245.609 255.218 246.983 252.329 246.441C249.818 245.971 248.461 244.055 247.982 240.924C247.789 239.665 247.759 238.323 247.845 236.999Z" fill="#F5222D"/>
<path d="M257.395 233.184C257.838 233.175 258.572 233.079 259.601 232.825C261.179 232.435 263.028 231.765 265.153 230.755L265.529 230.572L265.214 229.982C263.767 227.201 262.783 224.489 262.191 221.894L262.039 221.189C261.633 219.184 261.504 217.5 261.543 216.207L261.575 215.607C261.578 215.579 261.58 215.554 261.582 215.535C261.644 214.982 262.142 214.585 262.695 214.647C263.192 214.703 263.563 215.112 263.587 215.596L263.568 215.949C263.5 217.116 263.601 218.761 264.012 220.79C264.633 223.856 265.845 227.123 267.793 230.5C268.08 230.998 267.892 231.634 267.381 231.897C264.562 233.345 262.132 234.273 260.084 234.778C258.898 235.071 258.002 235.187 257.394 235.196L257.122 235.192C256.568 235.158 256.146 234.68 256.181 234.125C256.212 233.626 256.602 233.235 257.084 233.187L257.244 233.182L257.395 233.184Z" fill="#DD936F"/>
<path d="M242.091 207.445C246.196 207.801 248.813 212.924 248.313 218.719C248.251 219.43 247.625 219.957 246.913 219.896C246.202 219.834 245.675 219.208 245.736 218.496C246.129 213.944 244.23 210.227 241.869 210.022C239.511 209.821 237.005 213.157 236.61 217.709C236.548 218.421 235.922 218.947 235.21 218.886C234.498 218.824 233.972 218.197 234.033 217.485C234.524 211.837 237.818 207.326 241.784 207.428L242.091 207.445Z" fill="#253368"/>
<path d="M276.833 213.621C280.936 213.974 283.553 219.097 283.053 224.891C282.992 225.603 282.365 226.13 281.654 226.068C280.942 226.007 280.415 225.38 280.476 224.669C280.869 220.117 278.971 216.4 276.611 216.197C274.251 215.994 271.746 219.329 271.353 223.881C271.292 224.593 270.665 225.12 269.954 225.058C269.242 224.997 268.715 224.37 268.776 223.659C269.264 218.009 272.559 213.498 276.526 213.603L276.833 213.621Z" fill="#253368"/>
<path d="M232.31 195.318C238.437 192.188 244.277 192.074 249.315 193.771C250.516 194.176 251.386 194.589 251.881 194.884C252.526 195.268 252.738 196.104 252.353 196.749C251.968 197.395 251.133 197.606 250.487 197.221L250.36 197.151C250.273 197.105 250.153 197.044 250.001 196.972C249.558 196.762 249.038 196.55 248.446 196.351C244.06 194.873 238.969 194.972 233.548 197.741C232.878 198.083 232.059 197.818 231.717 197.148C231.375 196.479 231.64 195.659 232.31 195.318Z" fill="#253368"/>
<path d="M233.246 265.049C233.552 264.586 234.177 264.458 234.64 264.765C240.513 268.651 246.758 270.887 253.165 271.528C253.718 271.583 254.121 272.077 254.066 272.629C254.01 273.182 253.517 273.586 252.964 273.531C246.231 272.857 239.674 270.509 233.53 266.443C233.066 266.137 232.939 265.512 233.246 265.049Z" fill="#DD936F"/>
<path fill-rule="evenodd" clip-rule="evenodd" d="M363.949 484.326L365.612 483.413C378.039 476.582 382.577 460.975 375.749 448.55L312.495 333.456C305.664 321.029 290.056 316.494 277.632 323.322L275.969 324.236C263.545 331.066 259.007 346.671 265.835 359.098L329.089 474.192C335.92 486.617 351.525 491.154 363.949 484.326Z" fill="#FFC999"/>
<path fill-rule="evenodd" clip-rule="evenodd" d="M292.583 407.765L265.39 358.287C258.837 346.36 263.969 330.831 276.802 323.779C289.634 316.729 305.494 320.718 312.049 332.645L338.982 381.654L292.583 407.765Z" fill="#FF7A46"/>
<path d="M275.751 323.464C276.129 323.256 276.605 323.394 276.813 323.773C277.021 324.151 276.883 324.626 276.504 324.834C264.214 331.59 259.2 346.328 265.143 357.798L265.401 358.281L292.212 407.065L337.925 381.343C338.259 381.155 338.673 381.239 338.909 381.524L338.989 381.641C339.178 381.975 339.093 382.389 338.808 382.625L338.691 382.705L292.292 408.817C291.955 409.006 291.538 408.919 291.303 408.63L291.224 408.512L264.031 359.034C257.262 346.718 262.553 330.719 275.751 323.464Z" fill="#C44343"/>
<path fill-rule="evenodd" clip-rule="evenodd" d="M317.419 865.569C327.862 869.584 339.643 864.552 344.11 854.168L439.673 632.088C446.558 616.087 438.895 597.623 422.806 591.438C406.719 585.255 388.66 593.83 383.053 610.32L305.24 839.223C301.603 849.926 306.977 861.555 317.419 865.569Z" fill="#FFC999"/>
<path fill-rule="evenodd" clip-rule="evenodd" d="M177.182 584.494C183.903 564.201 202.512 552.261 218.393 558.054L389.133 620.346C402.284 625.144 408.339 642.387 402.774 659.191C397.213 675.997 382.06 686.218 368.646 682.218L194.47 630.304C178.271 625.476 170.463 604.787 177.182 584.494Z" fill="#FFC999"/>
<path fill-rule="evenodd" clip-rule="evenodd" d="M566.848 868.527C577.257 864.431 582.54 852.759 578.816 842.087L499.161 613.816C493.424 597.372 475.296 588.94 459.258 595.255C443.219 601.568 435.707 620.096 442.719 636.038L540.068 857.342C544.619 867.688 556.441 872.626 566.848 868.527Z" fill="#FFC999"/>
<path fill-rule="evenodd" clip-rule="evenodd" d="M269.21 603.019C271.524 581.766 287.216 566.187 303.958 568.521L483.967 593.602C497.833 595.532 507.37 611.122 505.457 628.719C503.541 646.319 490.872 659.491 476.917 658.397L295.727 644.182C278.872 642.858 266.899 624.271 269.21 603.019Z" fill="#FFC999"/>
<path fill-rule="evenodd" clip-rule="evenodd" d="M298.287 353.78C303.077 365.73 312.022 386.329 312.606 399.679C313.553 421.319 298.741 436.662 298.741 436.662C298.741 436.662 299.001 441.186 301.396 486.193C236.594 494.312 189.837 488.109 189.837 488.109L191.61 465.461L182.892 429.976C182.892 429.976 182.287 416.302 170.689 386.607C162.621 365.962 165.932 341.764 167.817 328.434C168.621 322.723 163.69 315.359 169.314 314.071C188.955 309.574 198.912 312.023 198.912 312.023L201.366 299.333C201.787 297.16 203.741 295.624 205.952 295.734L253.181 298.05C255.208 298.15 256.912 299.611 257.32 301.601L260.083 312.716L291.887 318.909C296.432 320.037 299.71 323.998 299.958 328.674L298.287 353.78Z" fill="#FF7A46"/>
<path d="M212.149 312.53L254.676 314.616C255.124 314.638 255.469 315.019 255.447 315.466C255.427 315.864 255.125 316.181 254.743 316.231L254.597 316.237L212.069 314.15C211.622 314.128 211.277 313.748 211.299 313.3C211.319 312.903 211.621 312.586 212.003 312.536L212.149 312.53Z" fill="#C44343"/>
<path d="M197.93 308.394C198.351 308.093 198.919 308.15 199.273 308.505L199.382 308.634L241.496 367.436L261.508 315.492C261.694 315.01 262.2 314.745 262.691 314.847L262.853 314.895C263.336 315.081 263.601 315.588 263.498 316.078L263.45 316.241L242.746 369.986C242.468 370.707 241.546 370.871 241.033 370.342L240.929 370.218L197.69 309.846C197.355 309.379 197.463 308.728 197.93 308.394Z" fill="#CCD7EE"/>
<path fill-rule="evenodd" clip-rule="evenodd" d="M254.43 374.64C258.756 382.825 256.141 392.696 248.591 396.685C241.039 400.677 231.412 397.277 227.084 389.092C222.76 380.907 225.372 371.036 232.922 367.046C240.475 363.055 250.104 366.455 254.43 374.64Z" fill="#CCD7EE"/>
<path fill-rule="evenodd" clip-rule="evenodd" d="M256.126 374.684C260.449 382.869 257.837 392.74 250.287 396.729C242.735 400.721 233.108 397.321 228.78 389.136C224.454 380.95 227.068 371.079 234.618 367.09C242.171 363.098 251.8 366.498 256.126 374.684Z" fill="#E4EBF7"/>
<path fill-rule="evenodd" clip-rule="evenodd" d="M253.062 375.922C256.421 382.279 254.391 389.941 248.529 393.04C242.668 396.139 235.189 393.499 231.833 387.143C228.473 380.789 230.501 373.124 236.365 370.025C242.229 366.929 249.705 369.569 253.062 375.922Z" fill="#FAAD14"/>
<path d="M161.328 327.149C161.774 327.184 162.108 327.574 162.074 328.02L161.876 330.781L161.728 333.023C161.63 334.56 161.533 336.177 161.441 337.852C161.227 341.737 161.057 345.555 160.947 349.187L160.897 350.987C160.708 358.526 160.811 364.569 161.275 368.544C161.741 372.54 164.009 379.164 167.641 387.655L167.996 388.483C168.764 390.261 169.582 392.098 170.443 393.985C172.479 398.447 174.661 402.98 176.844 407.345L177.946 409.536L179.751 413.051L179.819 413.228L193.136 465.558L193.157 465.839L191.014 487.243L193.46 487.463L195.289 487.614C197.494 487.789 199.948 487.962 202.633 488.126C232.233 489.936 265.408 489.491 298.278 485.243L300.116 484.999L300.094 483.337C300.017 479.854 299.745 473.046 299.324 463.81L298.942 455.597L298.102 438.474C298.094 438.309 298.136 438.146 298.223 438.006L298.797 437.048L299.375 436.057C299.675 435.534 299.993 434.972 300.325 434.374C301.907 431.524 303.489 428.438 304.966 425.231C306.972 420.871 308.621 416.631 309.789 412.646C310.863 408.983 311.502 405.626 311.649 402.645C312.025 394.984 311.323 389.012 309.408 382.862C308.398 379.619 307.047 376.271 305.062 371.997L304.225 370.226C303.238 368.171 301.385 364.393 299.866 361.304L297.446 356.389L297.364 356.024L297.515 342.725C297.52 342.277 297.887 341.918 298.335 341.923C298.733 341.927 299.061 342.218 299.125 342.597L299.137 342.743L298.987 355.848L305.204 368.523C305.542 369.219 305.826 369.81 306.032 370.245L306.124 370.438C308.362 375.195 309.854 378.838 310.957 382.38C312.93 388.717 313.654 394.879 313.269 402.725C313.116 405.847 312.453 409.326 311.346 413.102C310.153 417.171 308.476 421.482 306.439 425.909C305.158 428.692 303.799 431.383 302.429 433.911L301.743 435.161C301.407 435.767 301.085 436.337 300.78 436.866L299.94 438.301L299.734 438.641L300.037 444.696C300.214 448.283 300.392 451.931 300.562 455.52L301.4 474.205C301.661 480.587 301.78 484.627 301.725 485.752C301.706 486.142 301.411 486.464 301.023 486.516C267.21 491.091 232.991 491.607 202.534 489.745L200.281 489.602C198.085 489.457 196.063 489.306 194.225 489.155L191.313 488.901L190.04 488.776C189.646 488.734 189.348 488.416 189.317 488.034L189.319 487.889L191.529 465.821L178.27 413.721L177.51 412.251C176.871 411.008 176.159 409.604 175.392 408.071C173.202 403.689 171.012 399.14 168.967 394.658C168.318 393.236 167.693 391.841 167.096 390.478L166.507 389.126C162.606 380.094 160.17 373.066 159.664 368.732C159.189 364.661 159.085 358.557 159.276 350.946C159.366 347.364 159.518 343.578 159.718 339.705L159.821 337.763C159.914 336.083 160.011 334.461 160.109 332.92L160.456 327.895C160.491 327.449 160.881 327.115 161.328 327.149Z" fill="#C44343"/>
<path fill-rule="evenodd" clip-rule="evenodd" d="M303.615 499.391L299.48 485.235C299.48 485.235 246.663 489.082 197.022 489.064C194.619 494.851 194.147 505.822 194.147 505.822C198.139 502.197 248.747 509.635 303.615 499.391Z" fill="#4E5C93"/>
<path fill-rule="evenodd" clip-rule="evenodd" d="M468.447 565.243L320.067 523.057L305.704 500.076L194.668 504.427C194.668 504.427 123.33 636.861 207.77 665.847C274.825 684.304 293.45 686.196 293.45 686.196L319.814 722.459L439.673 664.763L527.245 609.671L468.447 565.243Z" fill="#4E5C93"/>
<path d="M247.847 508.844C248.248 508.587 248.767 508.663 249.08 509L249.187 509.138L266.694 536.48L391.951 615.183C392.072 615.258 392.174 615.359 392.25 615.478L392.318 615.602L414.703 664.72C414.925 665.208 414.71 665.784 414.222 666.006C413.783 666.206 413.273 666.052 413.013 665.663L412.937 665.525L390.672 616.673L265.476 538.008C265.396 537.957 265.323 537.895 265.261 537.823L265.175 537.709L247.553 510.185C247.264 509.734 247.395 509.133 247.847 508.844Z" fill="#253368"/>
<path d="M226.347 513.788C226.828 513.755 227.252 514.078 227.359 514.533L227.383 514.689L230.063 553.205L276.308 630.006L320.687 722.039C320.92 722.522 320.717 723.102 320.234 723.335C319.8 723.545 319.286 723.401 319.018 723.019L318.938 722.882L274.602 630.928L228.279 554.004C228.226 553.917 228.188 553.821 228.165 553.722L228.142 553.571L225.446 514.824C225.409 514.289 225.812 513.825 226.347 513.788Z" fill="#253368"/>
<path d="M207.085 516.211L207.242 516.229C207.716 516.322 208.04 516.744 208.026 517.211L208.008 517.368L197.564 570.588L244.539 669.239C244.746 669.674 244.601 670.187 244.217 670.453L244.08 670.532C243.644 670.74 243.132 670.594 242.865 670.21L242.786 670.073L195.675 571.135C195.608 570.994 195.576 570.84 195.582 570.685L195.599 570.531L206.103 516.995C206.196 516.521 206.618 516.196 207.085 516.211Z" fill="#253368"/>
<path d="M304.704 498.627C304.986 498.616 305.256 498.726 305.447 498.926L305.552 499.056L322.108 523.653L468.706 564.307L469.032 564.468L527.83 608.895C528.327 609.271 528.338 609.995 527.894 610.392L527.762 610.491L440.189 665.583C439.736 665.869 439.137 665.732 438.851 665.279C438.597 664.875 438.677 664.357 439.016 664.046L439.156 663.94L525.538 609.596L468.009 566.127L321.245 525.43C321.078 525.384 320.927 525.294 320.808 525.171L320.7 525.037L304.243 500.59L194.71 505.396C194.228 505.417 193.813 505.083 193.717 504.625L193.697 504.469C193.676 503.987 194.011 503.571 194.468 503.476L194.625 503.456L304.704 498.627Z" fill="#253368"/>
<path d="M248.357 544.261C248.763 544.012 249.281 544.097 249.588 544.44L249.692 544.58L271.176 579.591L318.609 622.891C318.961 623.213 319.023 623.733 318.778 624.123L318.672 624.263C318.351 624.614 317.83 624.676 317.44 624.431L317.301 624.325L269.769 580.935L269.596 580.726L248.038 545.596C247.757 545.139 247.9 544.541 248.357 544.261Z" fill="#253368"/>
<path d="M326.671 558.997C326.828 558.54 327.29 558.276 327.751 558.355L327.904 558.394L403.112 584.224L464.869 617.837C465.34 618.093 465.513 618.682 465.257 619.153C465.027 619.577 464.526 619.76 464.085 619.606L463.941 619.542L402.333 585.994L327.274 560.23C326.767 560.056 326.497 559.504 326.671 558.997Z" fill="#253368"/>
<path fill-rule="evenodd" clip-rule="evenodd" d="M425.783 327.125C433.037 330.951 436.287 339.256 433.165 345.972L375.668 472.786C369.694 484.496 352.686 494.809 338.619 484.573C325.633 477.719 320.297 462.548 326.809 450.996L406.393 331.134C410.359 325.161 418.766 323.424 425.783 327.125Z" fill="#FFC999"/>
<path fill-rule="evenodd" clip-rule="evenodd" d="M189.519 631.944C197.546 629.904 202.701 622.502 201.219 615.143L172.601 473.078C169.497 460.12 155.315 452.494 141.067 456.113C126.694 459.768 117.871 473.435 121.541 486.364L171.733 631.786C174.22 638.612 181.755 633.918 189.519 631.944Z" fill="#FFC999"/>
<path fill-rule="evenodd" clip-rule="evenodd" d="M139.92 497.719L142.78 498.295C156.875 501.142 170.61 492.023 173.454 477.925L199.157 350.636C202.001 336.541 192.883 322.808 178.785 319.962L175.928 319.383C161.833 316.539 148.098 325.658 145.254 339.753L119.553 467.042C116.704 481.139 125.825 494.872 139.92 497.719Z" fill="#FFC999"/>
<path fill-rule="evenodd" clip-rule="evenodd" d="M134.521 392.904L146.384 334.142C149.246 319.978 163.853 310.862 178.846 313.889C193.839 316.917 203.764 330.984 200.904 345.15L189.153 403.354L134.521 392.904Z" fill="#FF7A46"/>
<path d="M134.265 390.354L189.599 403.069C190.026 403.167 190.293 403.593 190.194 404.02C190.107 404.399 189.761 404.652 189.385 404.635L189.244 404.615L133.909 391.9C133.482 391.802 133.216 391.376 133.314 390.949C133.401 390.57 133.747 390.317 134.123 390.334L134.265 390.354Z" fill="#C44343"/>
<path fill-rule="evenodd" clip-rule="evenodd" d="M240.02 666.21C244.695 664.428 236.4 643.777 233.816 639.551C230.373 633.911 198.663 616.383 198.663 616.383L193.092 591.47L163.885 603.377C163.885 603.377 168.376 630.858 176.607 645.024C182.749 655.594 193.197 653.332 208.052 667.33C214.929 673.809 223.535 680.665 227.039 675.495C227.731 674.475 234.88 676.349 233.962 670.031C233.962 670.031 236.393 671.926 238.683 670.011C240.67 668.345 240.02 666.21 240.02 666.21Z" fill="#FFC999"/>
<path d="M201.748 651.108C201.985 650.605 202.585 650.39 203.088 650.627L203.657 650.909L203.865 651.016C204.469 651.331 205.141 651.7 205.864 652.123C207.929 653.329 209.994 654.722 211.926 656.288C213.678 657.708 215.236 659.204 216.548 660.772L228.039 674.508C228.396 674.934 228.339 675.569 227.913 675.925C227.487 676.282 226.852 676.225 226.496 675.799L215.005 662.064C213.782 660.602 212.316 659.194 210.659 657.851C208.813 656.356 206.831 655.018 204.849 653.86C204.329 653.556 203.837 653.281 203.381 653.037L202.433 652.546C202.347 652.503 202.279 652.47 202.23 652.447C201.727 652.21 201.511 651.61 201.748 651.108Z" fill="#DD936F"/>
<path d="M209.611 642.047C209.953 641.61 210.586 641.533 211.023 641.875L211.686 642.409L212.509 643.093C212.797 643.335 213.098 643.592 213.41 643.862C215.192 645.405 216.974 647.067 218.64 648.787C220.546 650.754 222.179 652.674 223.454 654.507L224.461 655.941C224.812 656.436 225.178 656.949 225.558 657.478L226.754 659.133C227.716 660.455 228.719 661.818 229.739 663.189L232.662 667.087L234.084 668.958C234.422 669.399 234.338 670.031 233.897 670.368C233.456 670.706 232.824 670.623 232.486 670.181L230.63 667.736L230.186 667.146C228.806 665.312 227.426 663.459 226.105 661.657L224.507 659.462L223.359 657.865C222.807 657.09 222.287 656.353 221.802 655.657C220.596 653.923 219.031 652.082 217.195 650.187C215.573 648.513 213.833 646.891 212.093 645.384L211.214 644.633L209.965 643.605C209.889 643.543 209.828 643.495 209.783 643.46C209.345 643.118 209.268 642.485 209.611 642.047Z" fill="#DD936F"/>
<path d="M216.632 635.827C216.943 635.367 217.569 635.247 218.029 635.559L218.691 636.026C219.207 636.4 219.782 636.832 220.4 637.317C222.165 638.701 223.931 640.236 225.582 641.883C228.781 645.074 231.162 648.291 232.386 651.45C232.98 652.984 233.64 654.49 234.354 655.962C235.501 658.324 236.729 660.486 237.956 662.398C238.385 663.066 238.782 663.654 239.137 664.157L239.572 664.756C239.91 665.198 239.826 665.829 239.384 666.167C238.943 666.504 238.311 666.42 237.974 665.979L237.622 665.499L237.494 665.319C237.121 664.792 236.707 664.179 236.262 663.485C234.994 661.508 233.726 659.278 232.544 656.84C231.806 655.32 231.124 653.764 230.509 652.177C229.405 649.326 227.179 646.318 224.16 643.308C222.571 641.722 220.865 640.239 219.158 638.9L218.297 638.238C218.159 638.134 218.025 638.034 217.894 637.937L216.977 637.277C216.947 637.257 216.922 637.239 216.9 637.225C216.44 636.913 216.32 636.287 216.632 635.827Z" fill="#DD936F"/>
<path fill-rule="evenodd" clip-rule="evenodd" d="M403.435 330.11L411.184 288.756C411.184 288.756 432.666 241.14 442.246 243.027C451.258 245.991 432.936 260.78 430.276 273.908C438.453 272.536 435.882 285.139 435.882 285.139C435.882 285.139 442.415 284.274 441.606 294.421C448.034 297.444 444.248 309.36 444.248 309.36C444.248 309.36 440.915 332.635 429.291 354.048C429.291 354.048 405.139 365.812 403.435 330.11Z" fill="#FFC999"/>
<path fill-rule="evenodd" clip-rule="evenodd" d="M402.454 326.772C402.454 326.772 402.982 307.464 403.811 297.572C404.637 287.68 398.857 270.514 406.392 274.491C411.455 277.164 411.626 287.688 412.187 295.409C412.753 303.125 426.935 320.197 418.87 333.72C413.422 342.857 403.65 344.923 402.454 326.772Z" fill="#FFC999"/>
<path d="M429.485 273.288C429.828 272.851 430.461 272.774 430.898 273.117C431.335 273.46 431.412 274.093 431.069 274.53L430.683 275.035L429.925 276.06C429.835 276.184 429.743 276.311 429.65 276.442C428.579 277.935 427.508 279.531 426.511 281.162C425.526 282.772 424.667 284.329 423.968 285.8C421.368 291.271 421.33 294.642 424.205 295.532C424.736 295.696 425.033 296.259 424.869 296.79C424.705 297.321 424.141 297.618 423.61 297.454C419.03 296.037 419.083 291.39 422.15 284.937C422.882 283.396 423.775 281.778 424.794 280.112C425.819 278.436 426.917 276.8 428.014 275.269L428.569 274.505L429.432 273.356C429.452 273.33 429.47 273.307 429.485 273.288Z" fill="#DD936F"/>
<path d="M435.876 284.896C436.254 285.303 436.231 285.94 435.825 286.318L435.4 286.723L434.857 287.256C434.666 287.445 434.468 287.645 434.261 287.855C433.082 289.055 431.902 290.338 430.804 291.647C429.729 292.929 428.79 294.169 428.026 295.337C425.589 299.066 425.27 301.434 427.174 302.367C427.578 302.564 427.993 302.66 428.428 302.662C429.974 302.669 431.804 301.493 433.668 299.493C434.349 298.762 434.984 297.976 435.554 297.19L435.988 296.573C436.106 296.399 436.197 296.258 436.259 296.159C436.552 295.687 437.172 295.542 437.644 295.835C438.116 296.128 438.261 296.749 437.968 297.221L437.782 297.511C437.631 297.738 437.43 298.03 437.183 298.371C436.568 299.22 435.883 300.069 435.141 300.865C432.927 303.241 430.679 304.684 428.418 304.674C427.683 304.671 426.969 304.506 426.29 304.174C422.833 302.482 423.322 298.856 426.341 294.236C427.153 292.995 428.139 291.693 429.262 290.354C430.397 289 431.612 287.68 432.826 286.444L433.727 285.544L434.454 284.845C434.861 284.466 435.497 284.489 435.876 284.896Z" fill="#DD936F"/>
<path d="M439.231 294.384C439.769 294.246 440.317 294.57 440.456 295.108C440.594 295.647 440.269 296.195 439.731 296.333C438.435 296.666 436.867 298.014 435.077 300.579C431.32 305.963 430.751 309.244 432.068 309.854C433.436 310.488 436.389 308.786 438.103 305.757C438.718 304.669 440.372 305.456 439.915 306.62C437.5 312.776 434.341 316.771 429.887 320.128C429.286 320.581 428.667 321.021 427.963 321.498L425.057 323.409C419.168 327.286 416.953 330.252 416.235 337.193C416.178 337.746 415.683 338.148 415.131 338.091C414.578 338.034 414.176 337.539 414.233 336.986C415.001 329.562 417.467 326.093 423.457 322.057L426.304 320.188L427.325 319.496C427.805 319.163 428.246 318.845 428.675 318.521C431.28 316.558 433.399 314.377 435.178 311.602L435.408 311.231L435.215 311.333C433.893 311.985 432.566 312.181 431.471 311.783L431.222 311.68C428.241 310.299 429.035 305.72 433.427 299.427C435.466 296.505 437.38 294.859 439.231 294.384Z" fill="#DD936F"/>
<path d="M411.305 284.768C411.797 284.68 412.27 284.965 412.431 285.422L412.473 285.58L415.046 299.904L415.188 300.104C415.409 300.417 415.655 300.779 415.918 301.187C416.67 302.346 417.42 303.637 418.121 305.027C420.139 309.03 421.353 313.047 421.354 316.845C421.355 318.99 420.96 321.005 420.126 322.856C419.898 323.362 419.302 323.588 418.795 323.36C418.289 323.131 418.063 322.535 418.291 322.029C419.003 320.45 419.342 318.716 419.342 316.845C419.341 313.411 418.212 309.679 416.324 305.933C415.791 304.875 415.227 303.878 414.657 302.957L414.229 302.281C413.804 301.624 413.476 301.159 413.295 300.919C413.231 300.835 413.181 300.742 413.147 300.643L413.107 300.49L410.492 285.936C410.394 285.389 410.758 284.866 411.305 284.768Z" fill="#DD936F"/>
<path d="M299.444 484.265C299.979 484.245 300.43 484.663 300.45 485.198C300.468 485.68 300.131 486.093 299.673 486.186L299.516 486.204L197.058 490.033C196.522 490.053 196.072 489.635 196.051 489.099C196.034 488.617 196.371 488.204 196.829 488.112L196.985 488.093L299.444 484.265Z" fill="#253368"/>
</g>
<path fill-rule="evenodd" clip-rule="evenodd" d="M513.243 345.515C472.777 326.374 448.658 376.574 469.01 404.524C493.845 438.632 506.567 477.878 513.652 489.702C519.628 499.677 535.999 523.996 555.712 512.787C573.854 502.471 563.966 461.985 563.966 461.985C563.966 461.985 563.165 369.128 513.243 345.515Z" fill="#5B8C00"/>
<path fill-rule="evenodd" clip-rule="evenodd" d="M634.96 504.992C648.717 486.431 653.741 459.796 638.385 452.965C623.663 446.417 599.275 462.541 587.979 493.572C576.684 524.602 570.167 546.913 581.216 550.792C599.345 557.156 616.789 529.507 634.96 504.992Z" fill="#5B8C00"/>
<path fill-rule="evenodd" clip-rule="evenodd" d="M490.328 506.401C505.889 524.636 528.343 561.318 542.41 548.47C550.935 540.685 539.538 503.813 508.339 483.751C481.802 466.687 474.768 488.167 490.328 506.401Z" fill="#7CB305"/>
<path fill-rule="evenodd" clip-rule="evenodd" d="M639.225 379.861C633.308 375.88 625.864 374.971 619.072 377.147C609.593 380.183 595.208 389.223 580.971 415.17C562.384 449.047 552.708 486.186 554.621 509.711C555.871 525.096 574.824 531.728 585.428 520.511C590.297 515.359 595.449 507.418 600.491 495.37C620.778 446.89 639.745 416.509 642.008 413.459C648.043 405.319 652.358 388.697 639.225 379.861Z" fill="#7CB305"/>
<path fill-rule="evenodd" clip-rule="evenodd" d="M625.619 399.199C625.418 401.592 627.196 403.696 629.589 403.896C631.983 404.097 634.086 402.319 634.287 399.926C634.488 397.532 632.71 395.429 630.316 395.228C627.923 395.027 625.82 396.805 625.619 399.199Z" fill="white"/>
<path fill-rule="evenodd" clip-rule="evenodd" d="M588.676 417.768C588.475 420.162 590.253 422.265 592.646 422.466C595.04 422.667 597.143 420.889 597.344 418.495C597.545 416.102 595.767 413.999 593.373 413.798C590.98 413.597 588.877 415.375 588.676 417.768Z" fill="white"/>
<path fill-rule="evenodd" clip-rule="evenodd" d="M594.868 467.211C594.638 469.953 596.673 472.361 599.415 472.591C602.156 472.821 604.565 470.785 604.794 468.044C605.025 465.303 602.989 462.894 600.247 462.664C597.506 462.434 595.098 464.47 594.868 467.211Z" fill="white"/>
<path fill-rule="evenodd" clip-rule="evenodd" d="M481.397 393.321C481.397 397.211 484.551 400.365 488.441 400.365C492.332 400.365 495.485 397.211 495.485 393.321C495.485 389.431 492.332 386.277 488.441 386.277C484.551 386.277 481.397 389.431 481.397 393.321Z" fill="white"/>
<path fill-rule="evenodd" clip-rule="evenodd" d="M538.103 414.831C538.103 418.721 541.257 421.875 545.147 421.875C549.038 421.875 552.191 418.721 552.191 414.831C552.191 410.941 549.038 407.787 545.147 407.787C541.257 407.787 538.103 410.941 538.103 414.831Z" fill="white"/>
<path fill-rule="evenodd" clip-rule="evenodd" d="M519.738 462.646C519.738 464.272 521.056 465.591 522.682 465.591C524.308 465.591 525.626 464.272 525.626 462.646C525.626 461.02 524.308 459.702 522.682 459.702C521.056 459.702 519.738 461.02 519.738 462.646Z" fill="white"/>
<path fill-rule="evenodd" clip-rule="evenodd" d="M498.527 500.299C498.527 502.701 500.475 504.648 502.876 504.648C505.279 504.648 507.226 502.701 507.226 500.299C507.226 497.897 505.279 495.95 502.876 495.95C500.475 495.95 498.527 497.897 498.527 500.299Z" fill="white"/>
<path d="M600.116 509.946C599.71 509.559 599.068 509.575 598.682 509.98L598.496 510.18L598.356 510.336C598.1 510.621 597.805 510.962 597.473 511.357C596.53 512.481 595.482 513.824 594.355 515.385C591.143 519.833 587.933 525.14 584.94 531.297C576.397 548.868 571.274 569.737 571.274 593.83C571.274 594.39 571.728 594.844 572.288 594.844C572.848 594.844 573.302 594.39 573.302 593.83C573.302 570.055 578.352 549.487 586.764 532.184C589.705 526.135 592.854 520.928 595.999 516.573C597.033 515.142 597.995 513.902 598.865 512.855L599.027 512.66C599.274 512.366 599.499 512.105 599.7 511.877L599.954 511.592C600.048 511.488 600.114 511.417 600.15 511.38C600.536 510.974 600.521 510.332 600.116 509.946Z" fill="#253368"/>
<path d="M523.495 517.044C523.16 516.596 522.524 516.503 522.075 516.839C521.626 517.174 521.534 517.809 521.869 518.258C525.563 523.205 528.972 528.524 532.107 534.163C538.734 546.083 543.857 558.862 547.66 571.642C548.991 576.115 550.062 580.268 550.895 583.992L551.064 584.756C551.263 585.667 551.435 586.498 551.581 587.243L551.675 587.73L551.844 588.65C551.937 589.202 552.46 589.574 553.012 589.481C553.565 589.388 553.937 588.865 553.844 588.313L553.786 587.986C553.739 587.723 553.68 587.412 553.611 587.057L553.444 586.213C553.281 585.408 553.091 584.518 552.875 583.55L552.69 582.735C551.875 579.179 550.853 575.26 549.604 571.064C545.762 558.151 540.585 545.238 533.88 533.177C530.702 527.462 527.245 522.067 523.495 517.044Z" fill="#253368"/>
<path d="M505.772 390.513C505.384 390.885 505.356 391.492 505.697 391.897L505.741 391.947C505.761 391.968 505.804 392.013 505.869 392.083L506.119 392.356L506.264 392.516C506.7 393.003 507.208 393.589 507.78 394.274C509.423 396.239 511.255 398.603 513.23 401.368C518.882 409.28 524.537 418.811 529.817 429.968C538.609 448.545 545.457 469.732 549.607 493.55C554.646 522.473 555.481 554.069 551.356 588.36C551.289 588.916 551.685 589.421 552.241 589.488C552.798 589.555 553.303 589.159 553.369 588.602C557.518 554.114 556.678 522.32 551.605 493.202C547.423 469.2 540.519 447.839 531.651 429.1C526.317 417.831 520.601 408.197 514.88 400.189L514.437 399.572C512.673 397.129 511.025 395.005 509.524 393.197L509.337 392.973C508.798 392.328 508.313 391.767 507.888 391.29L507.774 391.162C507.641 391.014 507.522 390.883 507.417 390.77L507.206 390.544C506.818 390.139 506.176 390.125 505.772 390.513Z" fill="#253368"/>
<path d="M593.558 450.655C593.079 450.365 592.455 450.518 592.165 450.997L592.063 451.168C591.982 451.305 591.886 451.469 591.777 451.659L591.618 451.937C591.346 452.415 591.04 452.965 590.704 453.584L590.425 454.101C589.393 456.021 588.263 458.243 587.056 460.76L586.891 461.105C582.954 469.353 579.019 478.998 575.347 489.958C565.067 520.647 558.813 555.478 558.579 593.824C558.575 594.384 559.027 594.841 559.587 594.844C560.147 594.848 560.604 594.396 560.607 593.836C560.84 555.715 567.056 521.095 577.271 490.602C580.849 479.921 584.677 470.502 588.508 462.426L588.721 461.978C590.031 459.235 591.25 456.841 592.349 454.805L592.68 454.196C592.998 453.617 593.284 453.108 593.536 452.67L593.655 452.463L593.899 452.048C594.19 451.569 594.037 450.945 593.558 450.655Z" fill="#253368"/>
<path fill-rule="evenodd" clip-rule="evenodd" d="M515.503 644.136H603.167C607.906 644.136 611.783 640.259 611.783 635.52V571.565C611.783 566.826 607.906 562.949 603.167 562.949H515.503C510.765 562.949 506.887 566.826 506.887 571.565V635.52C506.887 640.259 510.765 644.136 515.503 644.136Z" fill="#253368"/>
<g clip-path="url(#clip2)">
<path d="M582.302 301.355L611.205 274.33L619.503 291.238C624.791 302.344 623.976 313.264 617.663 322.426C615.289 325.635 612.94 327.713 610.546 329.403C613.119 328.092 617.84 326.168 621.564 327.355C626.967 329.081 629.76 331.643 635.216 337.47L643.687 348.227C643.687 348.227 615.363 359.829 614.862 359.239C610.119 360.342 603.841 361.353 598.249 360.4C594.048 359.687 590.228 357.861 587.732 354.131C579.307 353.621 577.475 350.674 582.236 345.286C582.688 344.779 583.183 344.275 583.721 343.782C582.42 342.317 580.886 340.567 579.112 338.537C574.684 332.648 572.529 325.417 573.128 318.445C573.631 312.583 576.045 307.301 579.937 303.409C580.674 302.671 581.463 301.986 582.302 301.355Z" fill="url(#paint3_linear)"/>
<path d="M593.023 340.513C604.956 333.838 609.721 335.782 614.708 338.755C619.696 341.722 628.193 353.212 630.427 356.896C630.427 356.896 615.381 365.98 599.975 368.775C589.568 369.377 588.444 366.106 581.387 358.578C575.002 351.126 570.76 345.454 568.665 341.568C571.991 346.597 580.112 346.243 593.023 340.513Z" fill="url(#paint4_linear)"/>
<path d="M604.129 298.864C612.346 312.044 612.065 321.5 604.087 331.399C602.725 334.384 585.974 349.468 588.941 365.253C588.154 365.581 582.122 358.854 570.842 345.081C565.928 337.201 562.483 332.386 562.342 325.088C562.198 317.788 567.55 308.136 571.434 302.814L589.722 279.155L604.129 298.864Z" fill="url(#paint5_linear)"/>
<path d="M593.772 340.116C594.767 339.548 595.596 339.159 595.848 339.031C597.204 338.354 598.627 337.754 599.26 337.545C590.839 349.606 587.263 359.096 588.534 366.016C587.872 365.778 584.412 361.867 582.674 360.025C575.487 351.779 570.826 345.572 568.607 341.454C572.457 346.055 580.033 346.611 593.772 340.116Z" fill="#FFB511"/>
</g>
<defs>
<linearGradient id="paint0_linear" x1="50.3512" y1="587.104" x2="136.284" y2="576.339" gradientUnits="userSpaceOnUse">
<stop stop-color="#FFBA00"/>
<stop offset="1" stop-color="#FA5800"/>
</linearGradient>
<linearGradient id="paint1_linear" x1="169.35" y1="569.13" x2="110.812" y2="644.297" gradientUnits="userSpaceOnUse">
<stop stop-color="#FFF75D"/>
<stop offset="1" stop-color="#F89800"/>
</linearGradient>
<linearGradient id="paint2_linear" x1="67.8454" y1="496.269" x2="168.004" y2="582.587" gradientUnits="userSpaceOnUse">
<stop stop-color="#FFF75D"/>
<stop offset="1" stop-color="#F89600"/>
</linearGradient>
<linearGradient id="paint3_linear" x1="633.534" y1="310.214" x2="594.346" y2="340.676" gradientUnits="userSpaceOnUse">
<stop stop-color="#FFBA00"/>
<stop offset="1" stop-color="#FA5800"/>
</linearGradient>
<linearGradient id="paint4_linear" x1="578.024" y1="351.155" x2="632.209" y2="357.894" gradientUnits="userSpaceOnUse">
<stop stop-color="#FFF75D"/>
<stop offset="1" stop-color="#F89800"/>
</linearGradient>
<linearGradient id="paint5_linear" x1="589.632" y1="280.492" x2="584.023" y2="356.063" gradientUnits="userSpaceOnUse">
<stop stop-color="#FFF75D"/>
<stop offset="1" stop-color="#F89600"/>
</linearGradient>
<clipPath id="clip0">
<rect width="382.469" height="382.469" fill="white" transform="translate(325.157)"/>
</clipPath>
<clipPath id="clip1">
<rect width="727.259" height="599.488" fill="white" transform="translate(0 77.0375)"/>
</clipPath>
<clipPath id="clip2">
<rect width="112.824" height="112.824" fill="white" transform="matrix(-0.707107 0.707106 0.707107 0.707106 604.98 245.667)"/>
</clipPath>
</defs>
</svg>
