<svg width="686" height="688" viewBox="0 0 686 688" fill="none" xmlns="http://www.w3.org/2000/svg">
<g clip-path="url(#clip0)">
<g clip-path="url(#clip1)">
<path opacity="0.163388" fill-rule="evenodd" clip-rule="evenodd" d="M668.705 147.365H637.478C633.564 147.365 630.362 144.163 630.362 140.248V109.01C630.362 105.095 633.564 101.892 637.478 101.892H668.705C672.619 101.892 675.821 105.095 675.821 109.01V140.248C675.821 144.163 672.619 147.365 668.705 147.365Z" fill="#597EF7"/>
<path fill-rule="evenodd" clip-rule="evenodd" d="M361.171 120.313H347.318C345.571 120.313 344.143 118.791 344.143 116.93V101.99C344.143 100.129 345.571 98.6061 347.318 98.6061H361.171C362.917 98.6061 364.346 100.129 364.346 101.99V116.93C364.346 118.791 362.917 120.313 361.171 120.313Z" fill="#FFC540"/>
<path fill-rule="evenodd" clip-rule="evenodd" d="M668.894 206.312C667.148 206.312 665.719 204.894 665.719 203.162V189.252C665.719 187.52 667.148 186.102 668.894 186.102H682.747C684.494 186.102 685.922 187.52 685.922 189.252V203.162C685.922 204.894 684.494 206.312 682.747 206.312H668.894Z" fill="#FF7A46"/>
<path opacity="0.49707" fill-rule="evenodd" clip-rule="evenodd" d="M335.587 54.9474C330.911 54.9474 327.085 51.1214 327.085 46.4452V9.13041C327.085 4.45425 330.911 0.628296 335.587 0.628296H372.902C377.578 0.628296 381.404 4.45425 381.404 9.13041V46.4452C381.404 51.1214 377.578 54.9474 372.902 54.9474H335.587Z" fill="#ADC6FF"/>
<path fill-rule="evenodd" clip-rule="evenodd" d="M443.619 171.18C420.644 171.18 402.02 189.804 402.02 212.779C402.02 235.753 420.644 254.378 443.619 254.378C466.593 254.378 485.218 235.753 485.218 212.779C485.218 189.804 466.593 171.18 443.619 171.18Z" fill="#8BBC06"/>
<path fill-rule="evenodd" clip-rule="evenodd" d="M436.916 226.91L434.289 224.284L459.739 198.741C460.609 197.871 462.02 197.871 462.891 198.741L463.941 199.791C464.812 200.662 464.812 202.073 463.941 202.943L440.067 226.91C439.197 227.78 437.786 227.78 436.916 226.91Z" fill="white"/>
<path fill-rule="evenodd" clip-rule="evenodd" d="M442.689 224.284L440.063 226.91C439.192 227.78 437.781 227.78 436.911 226.91L426.453 216.452C425.583 215.582 425.583 214.171 426.453 213.3L427.504 212.25C428.374 211.38 429.785 211.38 430.655 212.25L442.689 224.284Z" fill="white"/>
<path d="M379.429 208.122C378.356 208.122 377.371 207.531 376.869 206.584C371.872 197.166 370.357 186.3 372.372 174.294C374.279 162.92 379.271 150.996 387.208 138.849C403.339 114.163 429.932 91.1647 462.087 74.0913C494.241 57.018 528.188 47.8789 557.679 48.3445C572.184 48.573 584.859 51.1181 595.347 55.9091C606.424 60.9682 614.573 68.3071 619.576 77.7283C620.324 79.1394 619.787 80.8903 618.376 81.639C616.965 82.3878 615.214 81.8509 614.466 80.4399C610.075 72.1727 602.835 65.6887 592.946 61.1713C583.186 56.7161 571.29 54.346 557.586 54.1174C529.059 53.6603 496.106 62.5821 464.801 79.1899C433.496 95.7977 407.656 118.13 392.049 142.015C384.553 153.49 379.852 164.67 378.077 175.25C376.277 185.972 377.592 195.602 381.982 203.87C382.457 204.764 382.43 205.842 381.91 206.711C381.391 207.581 380.455 208.116 379.443 208.122H379.429Z" fill="#FF7946"/>
<path opacity="0.33" d="M493.671 236.97C550.772 236.97 597.062 190.68 597.062 133.579C597.062 76.4773 550.772 30.1876 493.671 30.1876C436.57 30.1876 390.28 76.4773 390.28 133.579C390.28 190.68 436.57 236.97 493.671 236.97Z" fill="#4E5C93"/>
<path d="M563.192 158.677C569.281 142.436 572.328 136.344 563.192 133.581C554.056 130.819 540.859 148.524 528.67 139.984C516.481 131.443 532.73 112.998 527.654 102.44C522.578 91.8814 516.487 90.6653 519.534 70.7139C521.08 60.5901 530.451 49.3744 539.307 40.7855C525.116 33.7941 509.503 30.1676 493.683 30.1876C489.55 30.1876 485.422 30.4327 481.318 30.9213C489.893 49.713 474.335 63.4173 462.696 82.4319C448.484 105.668 453.56 120.103 482.997 125.695C512.435 131.287 509.39 166.797 482.997 175.919C456.604 185.041 464.725 147.512 448.484 147.328C432.243 147.145 416.002 143.451 414.986 128.24C414.422 119.615 403.387 111.548 393.948 106.181C391.506 115.109 390.272 124.325 390.28 133.581C390.28 190.682 436.571 236.972 493.674 236.972C520.149 237.007 545.622 226.849 564.809 208.607C557.535 191.751 558.728 170.581 563.192 158.677Z" fill="#597EF7"/>
<path d="M414.986 128.24C416.002 143.451 432.243 147.145 448.484 147.328C464.725 147.512 456.604 185.07 482.997 175.933C509.39 166.797 512.435 131.288 482.997 125.709C453.56 120.131 448.484 105.676 462.696 82.4461C474.324 63.4315 489.882 49.7158 481.319 30.9354C439.226 35.9353 404.902 66.2249 393.948 106.181C403.392 111.548 414.411 119.615 414.986 128.24Z" fill="#4E5C93"/>
<path d="M414.986 128.24C416.002 143.451 432.243 147.145 448.484 147.328C464.725 147.512 456.604 185.07 482.997 175.933C509.39 166.797 512.435 131.288 482.997 125.709C453.56 120.131 448.484 105.676 462.696 82.4461C474.324 63.4315 489.882 49.7158 481.319 30.9354C439.226 35.9353 404.902 66.2249 393.948 106.181C403.392 111.548 414.411 119.615 414.986 128.24Z" fill="#E4EBF7"/>
<path d="M597.062 133.581C597.062 92.8633 573.525 57.6444 539.316 40.7855C530.459 49.3744 521.089 60.5902 519.542 70.714C516.495 90.6653 522.587 91.8758 527.663 102.44C532.739 113.004 516.495 131.443 528.67 139.984C540.845 148.524 554.064 130.816 563.192 133.581C572.32 136.347 569.281 142.436 563.192 158.677C558.728 170.581 557.535 191.751 564.809 208.618C585.431 189.113 597.099 161.967 597.062 133.581Z" fill="#7CB305"/>
<path d="M533.007 210.557C531.677 210.56 530.515 209.656 530.193 208.365C529.871 207.074 530.471 205.73 531.647 205.108C562.966 188.486 588.789 166.171 604.395 142.297C611.906 130.825 616.593 119.632 618.368 109.059C620.168 98.3371 618.856 88.7071 614.466 80.4399C613.717 79.0288 614.254 77.2779 615.665 76.5292C617.076 75.7804 618.827 76.3173 619.575 77.7283C624.575 87.1468 626.09 98.0098 624.09 110.018C622.18 121.392 617.188 133.316 609.254 145.46C593.123 170.149 566.53 193.145 534.372 210.218C533.952 210.442 533.483 210.559 533.007 210.557Z" fill="#FAAD14"/>
<path d="M441.492 249.159C454.119 249.159 464.355 238.923 464.355 226.296C464.355 213.669 454.119 203.432 441.492 203.432C428.865 203.432 418.629 213.669 418.629 226.296C418.629 238.923 428.865 249.159 441.492 249.159Z" fill="#FAAD14"/>
</g>
<path d="M86.6293 451.966L17.626 454.283L28.2498 485.381C35.4277 505.608 49.9068 518.076 69.0001 521.591C75.8872 522.621 81.3494 522.286 86.3878 521.418C81.5959 522.976 73.3976 526.427 70.2671 532.486C65.7316 541.281 65.4457 547.887 65.9042 561.809L68.7241 585.531C68.7241 585.531 117.983 564.9 117.875 563.554C125.087 559.063 134.079 552.565 139.803 544.49C144.107 538.426 146.567 531.46 145.043 523.78C154.809 512.757 153.434 506.86 140.912 506.086C139.729 506.017 138.496 506.008 137.225 506.062C137.022 502.65 136.756 498.598 136.441 493.905C134.636 481.176 128.375 469.596 119.033 461.732C111.18 455.121 101.685 451.582 92.0818 451.582C90.2626 451.582 88.4435 451.71 86.6293 451.966Z" fill="url(#paint0_linear)"/>
<path d="M121.715 513.506C98.7568 519.994 95.2763 528.271 92.7917 538.091C90.2972 547.907 93.9896 572.566 95.7792 579.867C95.7792 579.867 125.551 572.512 148.006 556.953C161.588 544.855 158.941 539.432 158.359 521.438C157.043 504.366 155.278 492.135 153.069 484.755C155.169 495.063 144.713 504.647 121.715 513.506Z" fill="url(#paint1_linear)"/>
<path d="M56.6262 475.823C62.7491 502.222 74.7631 513.541 96.8194 515.912C102.183 517.914 141.459 515.858 157.274 538.994C158.65 538.427 157.792 522.686 154.716 491.776C151.058 475.99 149.367 465.8 140.537 456.621C131.708 447.436 113.196 442.132 101.838 440.357L50.0842 433.731L56.6262 475.823Z" fill="url(#paint2_linear)"/>
<path d="M120.3 513.94C118.373 514.468 116.869 515.01 116.401 515.163C113.892 516.001 111.397 517.016 110.357 517.539C135.627 522.03 151.748 529.326 158.719 539.432C159.242 538.323 158.684 529.228 158.556 524.81C157.25 505.771 155.342 492.362 153 484.543C153.927 494.97 145.265 505.002 120.3 513.94Z" fill="#FFB511"/>
<path fill-rule="evenodd" clip-rule="evenodd" d="M69.5206 133.925C84.9642 133.925 97.4837 146.444 97.4837 161.888V161.959C97.4837 177.403 84.9642 189.922 69.5206 189.922H28.2834C26.743 189.922 25.2316 189.798 23.7589 189.558L15.7696 197.275C15.5524 197.485 15.2621 197.602 14.9601 197.602C14.3166 197.602 13.795 197.08 13.795 196.437L13.7945 185.881C5.7169 180.978 0.320313 172.099 0.320312 161.959V161.888C0.320312 146.444 12.8398 133.925 28.2834 133.925H69.5206Z" fill="#253368"/>
<path d="M62.738 66.9298H121.619C143.681 66.9298 161.566 84.8148 161.566 106.877C161.566 128.939 143.681 146.824 121.619 146.824H62.738C40.6757 146.824 22.7907 128.939 22.7907 106.877C22.7907 84.8148 40.6757 66.9298 62.738 66.9298Z" fill="#597EF7"/>
<path fill-rule="evenodd" clip-rule="evenodd" d="M142.321 135.204V156.117C142.321 157.036 141.575 157.782 140.656 157.782C140.225 157.782 139.811 157.614 139.5 157.315L124.133 142.487L142.321 135.204Z" fill="#597EF7"/>
<path d="M118.914 111.87C115.352 111.87 112.464 108.983 112.464 105.421C112.464 101.859 115.352 98.9708 118.914 98.9708C122.476 98.9708 125.364 101.859 125.364 105.421C125.364 108.983 122.476 111.87 118.914 111.87Z" fill="white"/>
<path d="M92.4904 111.87C88.9282 111.87 86.0406 108.983 86.0406 105.421C86.0406 101.859 88.9282 98.9708 92.4904 98.9708C96.0525 98.9708 98.9402 101.859 98.9402 105.421C98.9402 108.983 96.0525 111.87 92.4904 111.87Z" fill="white"/>
<path d="M65.4427 111.87C61.8806 111.87 58.9929 108.983 58.9929 105.421C58.9929 101.859 61.8806 98.9708 65.4427 98.9708C69.0049 98.9708 71.8926 101.859 71.8926 105.421C71.8926 108.983 69.0049 111.87 65.4427 111.87Z" fill="white"/>
<path fill-rule="evenodd" clip-rule="evenodd" d="M263.803 505.338C263.803 514.881 256.067 522.618 246.524 522.618C236.982 522.618 229.244 514.881 229.244 505.338C229.244 495.795 236.982 488.059 246.524 488.059C256.067 488.059 263.803 495.795 263.803 505.338Z" fill="#253368"/>
<path fill-rule="evenodd" clip-rule="evenodd" d="M243.282 660.85H249.97V510.499H243.282V660.85Z" fill="#253368"/>
<path fill-rule="evenodd" clip-rule="evenodd" d="M243.283 660.85L165.382 673.825L160.354 670.195L243.283 645.769V660.85Z" fill="#253368"/>
<path fill-rule="evenodd" clip-rule="evenodd" d="M249.971 660.85L327.872 673.825L332.899 670.195L249.971 645.769V660.85Z" fill="#253368"/>
<path fill-rule="evenodd" clip-rule="evenodd" d="M241.32 678.294H251.933V656.509H241.32V678.294Z" fill="#253368"/>
<path fill-rule="evenodd" clip-rule="evenodd" d="M172.68 678.584C172.68 683.558 168.648 687.59 163.674 687.59C158.699 687.59 154.666 683.558 154.666 678.584C154.666 673.609 158.699 669.577 163.674 669.577C168.648 669.577 172.68 673.609 172.68 678.584Z" fill="#253368"/>
<path fill-rule="evenodd" clip-rule="evenodd" d="M255.633 678.584C255.633 683.558 251.601 687.59 246.626 687.59C241.652 687.59 237.619 683.558 237.619 678.584C237.619 673.609 241.652 669.577 246.626 669.577C251.601 669.577 255.633 673.609 255.633 678.584Z" fill="#253368"/>
<path fill-rule="evenodd" clip-rule="evenodd" d="M339.375 678.584C339.375 683.558 335.342 687.59 330.367 687.59C325.394 687.59 321.361 683.558 321.361 678.584C321.361 673.609 325.394 669.577 330.367 669.577C335.342 669.577 339.375 673.609 339.375 678.584Z" fill="#253368"/>
<path fill-rule="evenodd" clip-rule="evenodd" d="M354.835 502.166H138.214C138.214 480.875 155.473 463.616 176.764 463.616H316.284C337.575 463.616 354.835 480.875 354.835 502.166Z" fill="#A3B5D6"/>
<path fill-rule="evenodd" clip-rule="evenodd" d="M322.48 189.761C322.48 189.761 341.361 188.665 344.589 208.8C362.09 216.929 355.462 236.216 355.462 236.216C355.462 236.216 363.202 252.483 344.49 258.86C341.68 274.6 323.899 270.162 323.899 270.162C323.899 270.162 318.517 282.048 305.249 275.818C289.474 286.041 261.813 281.331 253.134 266.419C232.255 279.371 199.664 258.555 205.101 245.558C182.311 242.195 173.299 216.939 188.504 197.457C179.6 180.242 192.185 171.622 192.185 171.622C192.185 171.622 192.173 133.842 218.57 131.033C233.651 111.992 261.099 130.707 261.099 130.707C261.099 130.707 280.55 128.387 285.97 145.566C307.04 150.692 305.027 162.343 305.819 172.341C324.836 175.07 322.48 189.761 322.48 189.761Z" fill="#253368"/>
<path fill-rule="evenodd" clip-rule="evenodd" d="M264.806 166.34C249.606 167.678 246.033 155.955 246.033 155.955C246.033 155.955 241.233 139.466 238.804 149.125C237.515 154.257 230.062 146.657 225.884 151.888C223.071 155.408 228.88 160.758 219.93 170.018C214.746 175.383 232.841 181.582 220.514 191.231C220.514 191.231 227.506 204.912 213.208 207.944L210.418 223.036C208.795 231.819 215.105 240.087 224.006 240.841C232.491 241.559 239.895 235.127 240.369 226.623L241.405 208.017C263.039 209.882 266.66 180.239 264.806 166.34Z" fill="#FFC999"/>
<path fill-rule="evenodd" clip-rule="evenodd" d="M248.848 185.819C242.589 185.885 237.109 182.231 237.109 182.231C237.109 182.231 235.478 190.385 240.697 191.363C245.764 192.313 248.848 185.819 248.848 185.819Z" fill="white"/>
<path d="M236.213 182.052L236.152 182.401C236.13 182.546 236.105 182.719 236.081 182.916C235.918 184.25 235.893 185.651 236.097 186.983C236.529 189.803 237.924 191.773 240.528 192.261C243.251 192.771 245.639 191.537 247.64 189.238C248.214 188.579 248.715 187.877 249.141 187.174C249.399 186.749 249.577 186.414 249.673 186.211C249.963 185.601 249.514 184.898 248.838 184.905C246.219 184.933 243.529 184.284 240.93 183.184C240.035 182.805 239.216 182.399 238.493 181.994L238.157 181.803C237.905 181.656 237.722 181.542 237.616 181.471C237.075 181.11 236.34 181.414 236.213 182.052ZM237.811 184.033L237.836 183.717L237.6 183.589C238.38 184.026 239.258 184.461 240.217 184.867L240.746 185.084C242.673 185.854 244.65 186.391 246.63 186.616L247.29 186.678L247.097 186.966C246.841 187.333 246.562 187.693 246.262 188.038C244.642 189.898 242.833 190.833 240.865 190.464C239.155 190.144 238.231 188.839 237.904 186.706C237.773 185.849 237.752 184.935 237.811 184.033Z" fill="#F5222D"/>
<path d="M244.315 181.435C244.618 181.429 245.117 181.363 245.818 181.19C246.893 180.925 248.152 180.468 249.599 179.78L249.856 179.656L249.641 179.254C248.656 177.36 247.985 175.513 247.582 173.745L247.479 173.265C247.202 171.899 247.114 170.752 247.14 169.872L247.163 169.463C247.164 169.443 247.166 169.427 247.168 169.413C247.21 169.037 247.549 168.767 247.925 168.809C248.264 168.847 248.517 169.126 248.533 169.455L248.52 169.695C248.474 170.491 248.542 171.611 248.822 172.993C249.245 175.082 250.071 177.306 251.397 179.606C251.593 179.946 251.465 180.379 251.117 180.558C249.197 181.545 247.542 182.176 246.147 182.521C245.339 182.72 244.729 182.799 244.315 182.805L244.13 182.803C243.752 182.779 243.465 182.454 243.488 182.076C243.51 181.736 243.775 181.469 244.104 181.437L244.213 181.433L244.315 181.435Z" fill="#DD936F"/>
<path d="M233.892 163.904C236.688 164.146 238.47 167.635 238.13 171.582C238.088 172.067 237.661 172.426 237.176 172.384C236.692 172.342 236.333 171.915 236.374 171.431C236.642 168.33 235.349 165.798 233.741 165.659C232.135 165.522 230.428 167.794 230.159 170.895C230.117 171.379 229.69 171.738 229.205 171.696C228.72 171.654 228.362 171.227 228.404 170.742C228.738 166.895 230.981 163.822 233.683 163.892L233.892 163.904Z" fill="#253368"/>
<path d="M257.555 168.11C260.35 168.35 262.132 171.839 261.792 175.786C261.75 176.271 261.323 176.63 260.839 176.588C260.354 176.546 259.995 176.12 260.037 175.635C260.304 172.535 259.011 170.003 257.404 169.865C255.797 169.727 254.09 171.998 253.823 175.098C253.781 175.583 253.354 175.942 252.87 175.9C252.385 175.858 252.026 175.432 252.068 174.947C252.4 171.099 254.644 168.026 257.346 168.098L257.555 168.11Z" fill="#253368"/>
<path d="M227.23 155.643C231.403 153.512 235.381 153.434 238.812 154.59C239.63 154.866 240.223 155.147 240.56 155.348C240.999 155.61 241.143 156.179 240.881 156.618C240.619 157.058 240.05 157.202 239.611 156.94L239.524 156.892C239.465 156.861 239.383 156.819 239.279 156.77C238.978 156.627 238.623 156.483 238.22 156.347C235.233 155.34 231.765 155.408 228.073 157.294C227.617 157.527 227.059 157.346 226.826 156.89C226.593 156.435 226.774 155.876 227.23 155.643Z" fill="#253368"/>
<path d="M227.867 203.138C228.076 202.823 228.501 202.736 228.817 202.945C232.817 205.591 237.07 207.115 241.434 207.551C241.811 207.589 242.086 207.925 242.048 208.302C242.01 208.678 241.674 208.953 241.298 208.915C236.712 208.457 232.245 206.857 228.06 204.088C227.745 203.879 227.658 203.454 227.867 203.138Z" fill="#DD936F"/>
<path fill-rule="evenodd" clip-rule="evenodd" d="M316.891 352.491L318.024 351.869C326.488 347.217 329.579 336.586 324.928 328.124L281.845 249.732C277.192 241.267 266.561 238.179 258.099 242.829L256.966 243.451C248.504 248.104 245.413 258.733 250.064 267.197L293.147 345.589C297.8 354.051 308.429 357.142 316.891 352.491Z" fill="#FFC999"/>
<path fill-rule="evenodd" clip-rule="evenodd" d="M268.282 300.344L249.761 266.644C245.298 258.521 248.793 247.944 257.534 243.14C266.274 238.338 277.076 241.055 281.541 249.179L299.886 282.56L268.282 300.344Z" fill="#597EF7"/>
<path d="M256.818 242.926C257.076 242.784 257.4 242.878 257.541 243.136C257.683 243.394 257.589 243.717 257.331 243.859C248.96 248.461 245.545 258.499 249.593 266.311L249.769 266.64L268.03 299.868L299.166 282.348C299.393 282.22 299.675 282.277 299.836 282.472L299.891 282.551C300.019 282.779 299.961 283.06 299.767 283.222L299.688 283.276L268.085 301.061C267.855 301.19 267.571 301.131 267.411 300.933L267.357 300.853L248.835 267.153C244.225 258.764 247.829 247.867 256.818 242.926Z" fill="#4E5C93"/>
<path fill-rule="evenodd" clip-rule="evenodd" d="M285.199 612.162C292.311 614.896 300.336 611.468 303.378 604.396L368.468 453.134C373.157 442.236 367.938 429.66 356.979 425.447C346.022 421.235 333.722 427.076 329.903 438.308L276.903 594.217C274.426 601.507 278.086 609.427 285.199 612.162Z" fill="#FFC999"/>
<path fill-rule="evenodd" clip-rule="evenodd" d="M189.681 420.717C194.259 406.895 206.934 398.763 217.751 402.708L334.044 445.137C343.002 448.405 347.126 460.149 343.335 471.594C339.548 483.041 329.227 490.003 320.09 487.278L201.457 451.919C190.423 448.63 185.105 434.539 189.681 420.717Z" fill="#FFC999"/>
<path fill-rule="evenodd" clip-rule="evenodd" d="M298.125 618.152L271.777 608.955L284.84 566.763L315.09 577.321L298.125 618.152Z" fill="#597EF7"/>
<path d="M283.072 575.472C283.225 575.034 283.677 574.785 284.119 574.876L284.239 574.909L312.165 584.657C312.643 584.824 312.895 585.346 312.728 585.824C312.575 586.262 312.123 586.51 311.681 586.42L311.561 586.387L283.635 576.639C283.157 576.472 282.905 575.95 283.072 575.472Z" fill="#E4EBF7"/>
<path fill-rule="evenodd" clip-rule="evenodd" d="M303.911 608.899L274.943 598.788L254.958 651.34L320.231 674.121L323.233 666.03C324.326 663.053 323.13 659.719 320.389 658.119L304.842 646.976L297.708 638.8C295.559 636.338 294.936 632.903 296.094 629.847C298.584 623.277 302.79 612.13 303.911 608.899Z" fill="#4E5C93"/>
<path fill-rule="evenodd" clip-rule="evenodd" d="M254.984 653.29L320.057 676.001C320.675 676.217 321.349 675.892 321.563 675.273L324.112 667.977C324.327 667.36 324.002 666.684 323.384 666.47L258.311 643.759C257.695 643.543 257.021 643.868 256.805 644.485L254.258 651.783C254.043 652.4 254.369 653.074 254.984 653.29Z" fill="#E4EBF7"/>
<path fill-rule="evenodd" clip-rule="evenodd" d="M323.384 666.47C324.99 661.87 323.021 656.785 318.737 654.467L304.851 646.952L299.872 658.083L323.384 666.47Z" fill="#E4EBF7"/>
<path d="M257.869 643.603C257.943 643.389 258.157 643.264 258.374 643.293L258.466 643.315L323.539 666.027C323.783 666.112 323.912 666.38 323.827 666.624C323.752 666.838 323.538 666.964 323.322 666.935L323.229 666.912L258.157 644.201C257.912 644.115 257.783 643.848 257.869 643.603Z" fill="#A3B5D6"/>
<path d="M289.701 627.633C291.854 626.959 294.096 626.81 296.07 626.954L296.324 626.974C296.434 626.984 296.521 626.994 296.58 627.002C297.094 627.068 297.457 627.538 297.391 628.052C297.324 628.566 296.854 628.929 296.34 628.862L295.933 628.825C294.321 628.708 292.488 628.811 290.737 629.285L290.261 629.423L289.975 629.519L290.198 629.637C290.515 629.806 290.849 629.992 291.198 630.192L291.552 630.397L292.219 630.793C292.332 630.862 292.446 630.931 292.561 631.001C293.46 631.552 294.374 632.14 295.257 632.728L296.418 633.516C297.094 633.986 296.879 635.037 296.073 635.204L295.858 635.255C295.791 635.272 295.713 635.293 295.624 635.318C295.24 635.425 294.807 635.565 294.335 635.74C293.656 635.992 292.97 636.29 292.285 636.638L292.032 636.77L292.299 636.868L292.807 637.064C293.88 637.492 295.008 638.018 296.168 638.62C297.303 639.21 298.408 639.84 299.441 640.471L300.195 640.939L300.781 641.318C301.595 641.862 301.132 643.102 300.207 643.036L299.868 642.992C298.487 642.85 296.852 643.074 295.308 643.952C295.037 644.106 294.775 644.279 294.521 644.471C294.107 644.783 293.519 644.701 293.207 644.288C292.894 643.874 292.976 643.286 293.39 642.974C293.709 642.733 294.04 642.515 294.38 642.322C295.225 641.841 296.086 641.518 296.932 641.321L297.121 641.279L296.919 641.163C296.655 641.014 296.387 640.865 296.118 640.719L295.303 640.285C294.195 639.71 293.123 639.21 292.112 638.807C291.17 638.432 290.298 638.149 289.515 637.969C288.714 637.785 288.52 636.734 289.202 636.276C290.488 635.412 291.814 634.726 293.122 634.198L293.724 633.965L293.344 633.715C293.051 633.525 292.757 633.336 292.462 633.15L291.581 632.602L290.924 632.205L290.605 632.017C289.265 631.233 288.16 630.672 287.4 630.407C286.646 630.144 286.545 629.119 287.233 628.714C287.991 628.267 288.817 627.909 289.701 627.633Z" fill="#E4EBF7"/>
<path d="M287.254 617.257C282.152 617.452 278.235 619.263 276.12 623.127C274.62 625.866 275.25 627.849 277.723 628.448C279.448 628.865 282.077 628.614 285.483 627.844C287.818 627.316 290.405 626.569 293.088 625.684L294.752 625.123C296.239 624.61 297.453 624.161 298.257 623.849C298.471 623.801 298.918 623.646 299.377 623.407C300.084 623.039 300.601 622.58 300.816 621.934C301.11 621.054 300.719 620.181 299.775 619.411C299.694 619.344 299.602 619.292 299.504 619.256L299.051 619.1C298.903 619.052 298.73 618.996 298.534 618.935C297.775 618.7 296.928 618.464 296.012 618.245C293.049 617.536 290.062 617.149 287.254 617.257ZM287.326 619.132C289.94 619.032 292.766 619.397 295.575 620.07C296.449 620.279 297.257 620.503 297.977 620.727L298.709 620.965L298.789 621.036C299.008 621.236 299.043 621.321 299.037 621.339C299.012 621.413 298.826 621.579 298.511 621.743C298.201 621.904 297.877 622.016 297.683 622.066L296.836 622.385C295.907 622.73 294.741 623.148 293.385 623.607C290.438 624.603 287.591 625.444 285.069 626.014C281.931 626.723 279.525 626.953 278.164 626.624C277 626.342 276.816 625.763 277.766 624.028C279.515 620.833 282.821 619.304 287.326 619.132Z" fill="#E4EBF7"/>
<path fill-rule="evenodd" clip-rule="evenodd" d="M455.088 614.176C462.178 611.386 465.776 603.436 463.24 596.167L408.986 440.689C405.078 429.489 392.731 423.745 381.807 428.047C370.883 432.347 365.767 444.966 370.543 455.824L436.848 606.558C439.948 613.605 448 616.968 455.088 614.176Z" fill="#FFC999"/>
<path fill-rule="evenodd" clip-rule="evenodd" d="M252.363 433.335C253.939 418.859 264.627 408.248 276.031 409.838L398.637 426.921C408.081 428.236 414.577 438.854 413.274 450.84C411.969 462.827 403.34 471.799 393.835 471.053L270.424 461.371C258.944 460.47 250.789 447.81 252.363 433.335Z" fill="#FFC999"/>
<path fill-rule="evenodd" clip-rule="evenodd" d="M468.664 609.857L443.029 620.885L424.143 580.958L453.572 568.297L468.664 609.857Z" fill="#597EF7"/>
<path d="M456.375 575.68C456.84 575.48 457.379 575.694 457.579 576.159C457.763 576.585 457.598 577.074 457.211 577.306L457.1 577.363L429.928 589.054C429.463 589.254 428.924 589.039 428.724 588.574C428.541 588.148 428.706 587.659 429.093 587.427L429.204 587.37L456.375 575.68Z" fill="#E4EBF7"/>
<path fill-rule="evenodd" clip-rule="evenodd" d="M466.675 599.126L438.492 611.251L459.277 663.49L522.783 636.169L519.529 628.177C518.323 625.243 515.187 623.594 512.088 624.266L493.095 626.561L482.314 625.358C479.065 624.994 476.284 622.884 475.073 619.848C472.467 613.323 468.035 602.265 466.675 599.126Z" fill="#4E5C93"/>
<path fill-rule="evenodd" clip-rule="evenodd" d="M460.614 664.91L523.927 637.671C524.526 637.414 524.804 636.717 524.547 636.118L521.491 629.018C521.234 628.416 520.537 628.14 519.936 628.397L456.625 655.637C456.024 655.895 455.748 656.59 456.007 657.191L459.059 664.292C459.32 664.891 460.015 665.167 460.614 664.91Z" fill="#E4EBF7"/>
<path fill-rule="evenodd" clip-rule="evenodd" d="M519.937 628.398C518.012 623.923 513.123 621.506 508.398 622.693L493.085 626.537L496.939 638.106L519.937 628.398Z" fill="#E4EBF7"/>
<path d="M519.752 627.967C519.99 627.865 520.265 627.975 520.368 628.213C520.457 628.421 520.385 628.658 520.205 628.783L520.122 628.829L456.812 656.068C456.574 656.171 456.298 656.061 456.195 655.823C456.106 655.614 456.179 655.377 456.358 655.252L456.441 655.206L519.752 627.967Z" fill="#A3B5D6"/>
<path d="M473.508 617.421C473.931 617.122 474.516 617.224 474.815 617.647C475.113 618.071 475.012 618.656 474.588 618.954L474.423 619.076C474.259 619.201 474.033 619.383 473.762 619.617C473.122 620.17 472.482 620.804 471.886 621.509C471.296 622.206 470.787 622.928 470.377 623.667L470.336 623.743L470.625 623.667C471.099 623.546 471.613 623.427 472.165 623.308L472.586 623.22C473.441 623.043 474.341 622.878 475.25 622.725L476.476 622.527L477.791 622.334C478.606 622.225 479.157 623.144 478.677 623.812L478.53 624.03C478.448 624.157 478.345 624.324 478.225 624.529C477.869 625.137 477.512 625.838 477.178 626.622C477.096 626.816 477.016 627.012 476.939 627.21L476.758 627.696L477.029 627.585C477.528 627.384 478.054 627.19 478.607 627.003L479.169 626.819C480.727 626.321 482.39 625.899 484.052 625.552C484.343 625.491 484.623 625.435 484.891 625.383L486.094 625.165C486.17 625.153 486.232 625.143 486.278 625.136C487.244 624.987 487.74 626.208 487.02 626.786L486.811 626.931C486.721 626.995 486.597 627.09 486.448 627.216C486.062 627.539 485.675 627.93 485.313 628.387C484.562 629.336 484.027 630.436 483.796 631.691C483.703 632.201 483.214 632.538 482.704 632.444C482.194 632.35 481.857 631.861 481.951 631.352C482.192 630.039 482.697 628.864 483.398 627.828L483.574 627.576L482.837 627.747C482.042 627.938 481.256 628.147 480.494 628.374L479.74 628.606C478.143 629.116 476.775 629.677 475.712 630.282C474.998 630.688 474.143 630.044 474.337 629.246C474.621 628.07 475.001 626.948 475.452 625.888C475.598 625.543 475.749 625.214 475.903 624.898L476.11 624.484L475.564 624.575C474.971 624.674 474.383 624.779 473.811 624.889L472.966 625.057L472.19 625.224C470.819 625.529 469.734 625.839 469.041 626.136C468.308 626.451 467.541 625.764 467.774 625C468.284 623.329 469.219 621.756 470.454 620.297C471.117 619.513 471.826 618.81 472.535 618.197L472.88 617.906C473.147 617.686 473.362 617.523 473.508 617.421Z" fill="#E4EBF7"/>
<path d="M470.731 609.669C470.627 609.675 470.524 609.699 470.427 609.739L469.923 609.96L469.777 610.027C469.273 610.259 468.712 610.533 468.109 610.847C466.388 611.746 464.666 612.795 463.054 613.988C457.433 618.146 454.477 622.982 455.807 628.394C456.474 631.104 457.983 632.268 459.976 631.516C461.393 630.982 462.966 629.471 464.75 627.126C465.718 625.852 466.732 624.351 467.776 622.667C468.957 620.762 470.116 618.725 471.204 616.687L471.644 615.857C471.854 615.456 472.051 615.075 472.233 614.718L472.612 613.964L472.677 613.865C472.747 613.747 472.852 613.552 472.956 613.325C473.121 612.967 473.247 612.61 473.317 612.257C473.628 610.685 472.709 609.555 470.731 609.669ZM471.476 611.892C471.439 612.082 471.36 612.305 471.253 612.539L471.131 612.785C471.072 612.895 471.02 612.983 470.984 613.039L470.562 613.866C470.264 614.45 469.924 615.101 469.549 615.803C468.478 617.807 467.339 619.811 466.181 621.679C465.166 623.315 464.185 624.769 463.256 625.99C461.674 628.07 460.302 629.389 459.315 629.761C458.538 630.053 458.056 629.681 457.629 627.946C456.524 623.451 459.09 619.254 464.17 615.496C465.697 614.367 467.337 613.367 468.978 612.51C469.437 612.271 469.87 612.056 470.268 611.868L471 611.533L471.09 611.529C471.557 611.506 471.545 611.548 471.476 611.892Z" fill="#E4EBF7"/>
<path fill-rule="evenodd" clip-rule="evenodd" d="M272.167 263.574C275.43 271.714 281.523 285.744 281.921 294.837C282.565 309.576 272.477 320.026 272.477 320.026C272.477 320.026 272.654 323.108 274.285 353.763C230.147 359.293 198.301 355.068 198.301 355.068L199.508 339.642L193.57 315.473C193.57 315.473 193.158 306.159 185.259 285.933C179.764 271.872 182.019 255.39 183.303 246.311C183.85 242.421 180.492 237.405 184.322 236.528C197.7 233.465 204.482 235.133 204.482 235.133L206.153 226.49C206.44 225.01 207.771 223.964 209.277 224.039L241.445 225.616C242.826 225.684 243.987 226.679 244.265 228.034L246.146 235.606L267.809 239.824C270.904 240.592 273.137 243.29 273.305 246.474L272.167 263.574Z" fill="#597EF7"/>
<path d="M213.498 235.478L242.464 236.9C242.769 236.914 243.004 237.174 242.989 237.478C242.975 237.749 242.769 237.965 242.509 237.999L242.41 238.003L213.444 236.582C213.139 236.567 212.904 236.308 212.919 236.003C212.932 235.732 213.138 235.517 213.398 235.482L213.498 235.478Z" fill="#4E5C93"/>
<path d="M203.813 232.661C204.1 232.456 204.487 232.495 204.728 232.737L204.802 232.825L233.487 272.876L247.117 237.496C247.244 237.168 247.589 236.987 247.923 237.057L248.033 237.09C248.362 237.216 248.542 237.561 248.473 237.895L248.44 238.006L234.338 274.613C234.149 275.104 233.521 275.215 233.171 274.855L233.1 274.771L203.65 233.65C203.422 233.332 203.495 232.889 203.813 232.661Z" fill="#CCD7EE"/>
<path fill-rule="evenodd" clip-rule="evenodd" d="M242.296 277.782C245.242 283.357 243.461 290.081 238.319 292.798C233.175 295.517 226.618 293.201 223.67 287.626C220.725 282.051 222.504 275.328 227.647 272.61C232.791 269.891 239.349 272.207 242.296 277.782Z" fill="#CCD7EE"/>
<path fill-rule="evenodd" clip-rule="evenodd" d="M243.451 277.812C246.396 283.387 244.617 290.11 239.474 292.828C234.33 295.547 227.774 293.231 224.825 287.656C221.879 282.081 223.66 275.357 228.802 272.64C233.946 269.921 240.505 272.237 243.451 277.812Z" fill="#E4EBF7"/>
<path fill-rule="evenodd" clip-rule="evenodd" d="M241.364 278.656C243.652 282.985 242.269 288.204 238.277 290.315C234.285 292.426 229.191 290.628 226.905 286.298C224.617 281.971 225.998 276.75 229.992 274.639C233.986 272.53 239.078 274.328 241.364 278.656Z" fill="#FAAD14"/>
<path d="M178.882 245.436C179.187 245.459 179.414 245.725 179.391 246.029L179.256 247.91L179.155 249.437C179.088 250.483 179.023 251.585 178.96 252.726C178.814 255.372 178.698 257.972 178.623 260.446L178.589 261.672C178.46 266.807 178.531 270.923 178.847 273.631C179.164 276.352 180.709 280.864 183.182 286.647L183.425 287.211C183.948 288.422 184.505 289.674 185.091 290.958C186.478 293.998 187.964 297.085 189.451 300.059L190.202 301.551L191.431 303.945L191.477 304.066L200.548 339.708L200.562 339.899L199.102 354.478L200.768 354.628L202.014 354.731C203.516 354.85 205.188 354.968 207.016 355.08C227.177 356.312 249.773 356.009 272.162 353.116L273.413 352.949L273.398 351.818C273.346 349.445 273.16 344.808 272.874 338.518L272.613 332.923L272.042 321.261C272.036 321.149 272.065 321.037 272.124 320.942L272.515 320.29L272.908 319.614C273.113 319.258 273.33 318.876 273.556 318.468C274.633 316.527 275.711 314.425 276.716 312.241C278.083 309.271 279.206 306.383 280.002 303.669C280.733 301.174 281.169 298.888 281.269 296.857C281.525 291.639 281.046 287.572 279.742 283.383C279.055 281.174 278.134 278.893 276.782 275.982L276.212 274.776C275.539 273.376 274.278 270.803 273.243 268.699L271.595 265.351L271.539 265.103L271.642 256.045C271.645 255.739 271.895 255.495 272.2 255.498C272.471 255.501 272.695 255.699 272.739 255.958L272.746 256.057L272.644 264.983L276.879 273.616C277.109 274.09 277.303 274.493 277.443 274.789L277.505 274.921C279.03 278.161 280.046 280.642 280.797 283.054C282.141 287.371 282.634 291.567 282.372 296.911C282.268 299.038 281.817 301.407 281.062 303.98C280.25 306.751 279.108 309.687 277.72 312.702C276.848 314.598 275.922 316.431 274.989 318.153L274.522 319.005C274.293 319.417 274.073 319.805 273.866 320.166L273.294 321.143L273.153 321.374L273.36 325.499C273.48 327.942 273.601 330.426 273.717 332.871L274.288 345.598C274.465 349.945 274.547 352.697 274.509 353.462C274.496 353.728 274.295 353.947 274.031 353.983C251.001 357.099 227.693 357.451 206.948 356.182L205.414 356.085C203.919 355.986 202.541 355.883 201.29 355.78L199.306 355.607L198.439 355.522C198.171 355.494 197.967 355.277 197.947 355.017L197.948 354.918L199.453 339.887L190.422 304.401L189.905 303.4C189.469 302.553 188.984 301.597 188.462 300.553C186.97 297.568 185.479 294.47 184.086 291.417C183.644 290.449 183.218 289.499 182.811 288.57L182.41 287.649C179.753 281.498 178.094 276.71 177.749 273.759C177.426 270.986 177.355 266.828 177.485 261.644C177.546 259.205 177.65 256.626 177.786 253.988L177.856 252.665C177.92 251.521 177.986 250.416 178.053 249.366L178.289 245.944C178.313 245.64 178.578 245.412 178.882 245.436Z" fill="#4E5C93"/>
<path fill-rule="evenodd" clip-rule="evenodd" d="M275.796 362.753L272.98 353.11C272.98 353.11 237.006 355.73 203.195 355.718C201.558 359.66 201.237 367.132 201.237 367.132C203.955 364.664 238.425 369.73 275.796 362.753Z" fill="#4E5C93"/>
<path fill-rule="evenodd" clip-rule="evenodd" d="M388.066 407.605L287.002 378.872L277.219 363.219L201.591 366.182C201.591 366.182 153.002 456.385 210.516 476.128C256.188 488.699 268.873 489.988 268.873 489.988L286.83 514.687L368.468 475.389L428.115 437.865L388.066 407.605Z" fill="#4E5C93"/>
<path d="M237.812 369.191C238.085 369.016 238.439 369.068 238.652 369.297L238.725 369.391L250.649 388.014L335.964 441.62C336.046 441.671 336.115 441.74 336.167 441.821L336.214 441.905L351.46 475.361C351.612 475.693 351.465 476.085 351.133 476.236C350.834 476.373 350.486 476.267 350.31 476.003L350.257 475.909L335.093 442.635L249.82 389.055C249.765 389.02 249.715 388.978 249.673 388.929L249.615 388.851L237.612 370.104C237.415 369.797 237.505 369.388 237.812 369.191Z" fill="#253368"/>
<path d="M223.168 372.559C223.496 372.536 223.785 372.756 223.858 373.066L223.874 373.172L225.699 399.406L257.197 451.716L287.425 514.401C287.583 514.73 287.445 515.125 287.116 515.284C286.82 515.427 286.471 515.329 286.288 515.068L286.234 514.975L256.036 452.344L224.484 399.95C224.448 399.891 224.422 399.826 224.407 399.758L224.391 399.655L222.555 373.264C222.53 372.9 222.804 372.584 223.168 372.559Z" fill="#253368"/>
<path d="M210.049 374.208L210.156 374.221C210.478 374.284 210.699 374.572 210.689 374.89L210.677 374.997L203.563 411.245L235.559 478.438C235.7 478.735 235.601 479.084 235.339 479.265L235.246 479.319C234.95 479.46 234.601 479.361 234.419 479.099L234.365 479.006L202.277 411.618C202.232 411.522 202.21 411.417 202.214 411.312L202.226 411.207L209.38 374.742C209.443 374.42 209.731 374.199 210.049 374.208Z" fill="#253368"/>
<path d="M276.539 362.232C276.73 362.224 276.914 362.299 277.045 362.435L277.116 362.524L288.393 379.278L388.243 406.967L388.465 407.077L428.513 437.337C428.851 437.593 428.859 438.086 428.557 438.356L428.467 438.424L368.82 475.948C368.511 476.143 368.103 476.05 367.908 475.741C367.735 475.466 367.79 475.113 368.021 474.901L368.116 474.829L426.952 437.814L387.768 408.207L287.805 380.488C287.691 380.456 287.589 380.395 287.507 380.311L287.433 380.22L276.225 363.569L201.62 366.842C201.292 366.857 201.009 366.629 200.944 366.317L200.93 366.211C200.916 365.882 201.144 365.6 201.455 365.535L201.562 365.521L276.539 362.232Z" fill="#253368"/>
<path d="M238.16 393.314C238.436 393.144 238.789 393.202 238.998 393.436L239.069 393.531L253.702 417.378L286.01 446.87C286.249 447.089 286.291 447.444 286.124 447.709L286.052 447.804C285.833 448.044 285.479 448.085 285.213 447.919L285.118 447.847L252.744 418.293L252.626 418.151L237.942 394.223C237.751 393.912 237.849 393.505 238.16 393.314Z" fill="#253368"/>
<path d="M291.5 403.351C291.607 403.04 291.922 402.86 292.236 402.913L292.34 402.94L343.565 420.533L385.629 443.427C385.95 443.602 386.068 444.003 385.893 444.324C385.736 444.613 385.396 444.737 385.095 444.632L384.997 444.589L343.035 421.739L291.911 404.191C291.566 404.072 291.382 403.696 291.5 403.351Z" fill="#253368"/>
<path fill-rule="evenodd" clip-rule="evenodd" d="M359.007 245.419C363.948 248.025 366.161 253.682 364.035 258.256L324.873 344.631C320.804 352.607 309.22 359.631 299.638 352.659C290.794 347.991 287.159 337.658 291.595 329.79L345.8 248.15C348.502 244.081 354.228 242.898 359.007 245.419Z" fill="#FFC999"/>
<path fill-rule="evenodd" clip-rule="evenodd" d="M198.084 453.036C203.552 451.646 207.063 446.605 206.053 441.593L186.561 344.83C184.446 336.004 174.787 330.81 165.082 333.275C155.293 335.765 149.283 345.073 151.783 353.88L185.97 452.929C187.664 457.578 192.796 454.381 198.084 453.036Z" fill="#FFC999"/>
<path fill-rule="evenodd" clip-rule="evenodd" d="M164.302 361.613L166.25 362.006C175.85 363.945 185.205 357.734 187.142 348.132L204.649 261.433C206.586 251.833 200.375 242.479 190.773 240.54L188.828 240.146C179.227 238.209 169.872 244.42 167.935 254.02L150.43 340.719C148.489 350.321 154.702 359.674 164.302 361.613Z" fill="#FFC999"/>
<path fill-rule="evenodd" clip-rule="evenodd" d="M160.624 290.222L168.704 250.199C170.653 240.551 180.603 234.342 190.815 236.404C201.027 238.466 207.786 248.048 205.839 257.697L197.835 297.34L160.624 290.222Z" fill="#597EF7"/>
<path d="M160.45 288.485L198.139 297.146C198.429 297.213 198.611 297.503 198.544 297.793C198.485 298.052 198.249 298.224 197.993 298.212L197.897 298.199L160.208 289.539C159.917 289.472 159.735 289.182 159.802 288.891C159.861 288.632 160.097 288.46 160.353 288.472L160.45 288.485Z" fill="#4E5C93"/>
<path fill-rule="evenodd" clip-rule="evenodd" d="M232.481 476.375C235.666 475.161 230.016 461.096 228.256 458.217C225.911 454.376 204.312 442.437 204.312 442.437L200.518 425.469L180.624 433.579C180.624 433.579 183.684 452.296 189.29 461.945C193.473 469.145 200.589 467.604 210.707 477.138C215.391 481.551 221.253 486.221 223.64 482.699C224.111 482.004 228.98 483.281 228.355 478.978C228.355 478.978 230.011 480.269 231.571 478.964C232.924 477.83 232.481 476.375 232.481 476.375Z" fill="#FFC999"/>
<path d="M206.414 466.089C206.575 465.746 206.983 465.6 207.326 465.761L207.714 465.954L207.855 466.026C208.267 466.24 208.725 466.492 209.217 466.78C210.624 467.602 212.03 468.551 213.346 469.617C214.539 470.584 215.6 471.603 216.494 472.671L224.321 482.027C224.564 482.317 224.525 482.749 224.235 482.992C223.945 483.235 223.512 483.197 223.269 482.906L215.443 473.551C214.61 472.555 213.611 471.596 212.483 470.682C211.226 469.663 209.876 468.752 208.526 467.963C208.171 467.756 207.836 467.569 207.526 467.402L206.88 467.068C206.822 467.039 206.775 467.017 206.741 467.001C206.399 466.839 206.252 466.431 206.414 466.089Z" fill="#DD936F"/>
<path d="M211.769 459.918C212.002 459.62 212.433 459.567 212.731 459.8L213.183 460.164L213.743 460.63C213.939 460.795 214.144 460.97 214.357 461.154C215.571 462.205 216.784 463.336 217.919 464.508C219.218 465.848 220.329 467.155 221.198 468.404L221.884 469.381C222.123 469.718 222.372 470.067 222.631 470.428L223.445 471.555C224.101 472.455 224.784 473.383 225.479 474.318L227.47 476.972L228.438 478.247C228.668 478.547 228.611 478.977 228.311 479.207C228.01 479.438 227.58 479.381 227.35 479.08L226.086 477.414L225.783 477.012C224.843 475.764 223.904 474.501 223.004 473.274L221.915 471.779L221.133 470.691C220.757 470.163 220.403 469.661 220.073 469.187C219.251 468.006 218.185 466.753 216.935 465.462C215.83 464.322 214.645 463.216 213.46 462.19L212.861 461.679L212.011 460.978C211.958 460.937 211.917 460.904 211.886 460.88C211.588 460.646 211.536 460.216 211.769 459.918Z" fill="#DD936F"/>
<path d="M216.551 455.681C216.763 455.368 217.189 455.286 217.503 455.498L217.954 455.817C218.305 456.071 218.697 456.365 219.118 456.696C220.32 457.639 221.523 458.684 222.647 459.806C224.826 461.979 226.448 464.17 227.281 466.322C227.686 467.367 228.136 468.393 228.622 469.395C229.403 471.004 230.239 472.476 231.075 473.779C231.367 474.234 231.638 474.634 231.88 474.977L232.176 475.385C232.406 475.686 232.349 476.116 232.048 476.346C231.748 476.576 231.317 476.518 231.087 476.218L230.848 475.891L230.76 475.768C230.507 475.409 230.225 474.992 229.922 474.519C229.058 473.173 228.195 471.654 227.389 469.993C226.886 468.958 226.422 467.898 226.003 466.817C225.251 464.875 223.735 462.826 221.679 460.776C220.596 459.696 219.434 458.686 218.272 457.774L217.685 457.323C217.591 457.252 217.5 457.184 217.411 457.118L216.786 456.669C216.766 456.655 216.748 456.643 216.734 456.633C216.42 456.421 216.339 455.994 216.551 455.681Z" fill="#DD936F"/>
<path fill-rule="evenodd" clip-rule="evenodd" d="M343.786 247.452L349.064 219.286C349.064 219.286 363.695 186.854 370.22 188.139C376.358 190.158 363.879 200.231 362.067 209.173C367.637 208.238 365.886 216.822 365.886 216.822C365.886 216.822 370.335 216.233 369.784 223.144C374.162 225.203 371.584 233.32 371.584 233.32C371.584 233.32 369.314 249.172 361.397 263.757C361.397 263.757 344.946 271.77 343.786 247.452Z" fill="#FFC999"/>
<path fill-rule="evenodd" clip-rule="evenodd" d="M343.117 245.179C343.117 245.179 343.477 232.028 344.041 225.29C344.604 218.553 340.668 206.861 345.8 209.57C349.248 211.39 349.365 218.558 349.747 223.817C350.132 229.073 359.792 240.7 354.299 249.912C350.588 256.135 343.932 257.542 343.117 245.179Z" fill="#FFC999"/>
<path d="M361.529 208.75C361.762 208.452 362.193 208.4 362.491 208.634C362.789 208.868 362.841 209.298 362.607 209.596L362.345 209.94L361.828 210.638C361.767 210.722 361.704 210.809 361.641 210.898C360.912 211.915 360.182 213.002 359.503 214.113C358.832 215.21 358.247 216.271 357.771 217.272C356 220.999 355.974 223.294 357.933 223.901C358.294 224.012 358.497 224.396 358.385 224.758C358.273 225.12 357.889 225.322 357.527 225.21C354.408 224.245 354.444 221.08 356.533 216.684C357.031 215.635 357.64 214.533 358.333 213.398C359.032 212.256 359.779 211.142 360.527 210.099L360.905 209.579L361.493 208.797C361.506 208.779 361.518 208.763 361.529 208.75Z" fill="#DD936F"/>
<path d="M365.882 216.657C366.139 216.934 366.124 217.368 365.847 217.625L365.558 217.901L365.187 218.264C365.058 218.393 364.922 218.529 364.782 218.672C363.978 219.489 363.175 220.363 362.427 221.255C361.695 222.128 361.055 222.972 360.535 223.768C358.875 226.308 358.658 227.921 359.955 228.556C360.23 228.691 360.512 228.756 360.809 228.757C361.862 228.762 363.109 227.961 364.378 226.599C364.842 226.101 365.274 225.566 365.662 225.03L365.958 224.61C366.038 224.491 366.1 224.396 366.142 224.328C366.342 224.006 366.764 223.908 367.086 224.107C367.408 224.307 367.506 224.73 367.307 225.051L367.18 225.249C367.077 225.403 366.94 225.602 366.772 225.834C366.353 226.413 365.886 226.991 365.381 227.533C363.873 229.151 362.342 230.135 360.802 230.128C360.301 230.125 359.815 230.014 359.352 229.787C356.998 228.635 357.331 226.165 359.388 223.018C359.94 222.173 360.612 221.286 361.377 220.374C362.15 219.452 362.977 218.553 363.804 217.711L364.418 217.098L364.913 216.622C365.19 216.364 365.624 216.38 365.882 216.657Z" fill="#DD936F"/>
<path d="M368.167 223.119C368.533 223.025 368.907 223.246 369.001 223.612C369.095 223.979 368.874 224.352 368.507 224.447C367.624 224.673 366.556 225.592 365.338 227.339C362.779 231.005 362.391 233.24 363.288 233.656C364.22 234.088 366.231 232.929 367.398 230.865C367.817 230.124 368.944 230.66 368.633 231.453C366.988 235.646 364.836 238.367 361.802 240.654C361.393 240.962 360.971 241.262 360.492 241.587L358.513 242.889C354.502 245.529 352.993 247.549 352.504 252.277C352.465 252.654 352.128 252.927 351.752 252.888C351.375 252.85 351.101 252.513 351.14 252.136C351.663 247.079 353.343 244.717 357.423 241.968L359.362 240.694L360.057 240.223C360.384 239.996 360.685 239.78 360.977 239.559C362.751 238.222 364.195 236.737 365.406 234.847L365.563 234.594L365.432 234.663C364.531 235.107 363.627 235.241 362.881 234.97L362.712 234.9C360.681 233.959 361.222 230.84 364.213 226.554C365.602 224.564 366.906 223.442 368.167 223.119Z" fill="#DD936F"/>
<path d="M349.146 216.569C349.481 216.509 349.803 216.704 349.913 217.015L349.942 217.123L351.694 226.879L351.791 227.015C351.941 227.228 352.109 227.475 352.288 227.752C352.8 228.542 353.311 229.421 353.789 230.368C355.163 233.094 355.99 235.83 355.991 238.417C355.991 239.878 355.722 241.251 355.154 242.511C354.999 242.856 354.593 243.01 354.248 242.855C353.903 242.699 353.749 242.293 353.904 241.948C354.389 240.873 354.62 239.692 354.62 238.418C354.619 236.079 353.851 233.537 352.565 230.985C352.201 230.265 351.817 229.585 351.429 228.958L351.138 228.498C350.848 228.05 350.625 227.734 350.501 227.57C350.458 227.513 350.424 227.449 350.4 227.382L350.373 227.278L348.592 217.365C348.526 216.992 348.773 216.636 349.146 216.569Z" fill="#DD936F"/>
<path d="M272.956 352.449C273.32 352.436 273.627 352.721 273.641 353.085C273.653 353.414 273.424 353.695 273.112 353.758L273.005 353.771L203.219 356.378C202.854 356.392 202.547 356.107 202.533 355.742C202.522 355.414 202.751 355.133 203.063 355.07L203.17 355.057L272.956 352.449Z" fill="#253368"/>
<path fill-rule="evenodd" clip-rule="evenodd" d="M497.243 284.515C456.777 265.374 432.658 315.574 453.01 343.524C477.845 377.632 490.567 416.878 497.652 428.702C503.628 438.677 519.999 462.996 539.712 451.787C557.854 441.471 547.966 400.985 547.966 400.985C547.966 400.985 547.165 308.128 497.243 284.515Z" fill="#5B8C00"/>
<path fill-rule="evenodd" clip-rule="evenodd" d="M618.96 443.992C632.717 425.431 637.741 398.796 622.385 391.965C607.663 385.417 583.275 401.541 571.979 432.572C560.684 463.602 554.167 485.913 565.216 489.792C583.345 496.156 600.789 468.507 618.96 443.992Z" fill="#5B8C00"/>
<path fill-rule="evenodd" clip-rule="evenodd" d="M474.328 445.401C489.889 463.636 512.343 500.318 526.41 487.47C534.935 479.685 523.538 442.813 492.339 422.751C465.802 405.687 458.768 427.167 474.328 445.401Z" fill="#7CB305"/>
<path fill-rule="evenodd" clip-rule="evenodd" d="M623.225 318.861C617.308 314.88 609.864 313.971 603.072 316.147C593.593 319.183 579.208 328.223 564.971 354.17C546.384 388.047 536.708 425.186 538.621 448.711C539.871 464.095 558.824 470.728 569.428 459.511C574.297 454.359 579.449 446.418 584.491 434.37C604.778 385.89 623.745 355.509 626.008 352.459C632.043 344.319 636.358 327.697 623.225 318.861Z" fill="#7CB305"/>
<path fill-rule="evenodd" clip-rule="evenodd" d="M609.619 338.199C609.418 340.592 611.196 342.696 613.589 342.896C615.983 343.097 618.086 341.319 618.287 338.926C618.488 336.532 616.71 334.429 614.316 334.228C611.923 334.027 609.82 335.805 609.619 338.199Z" fill="white"/>
<path fill-rule="evenodd" clip-rule="evenodd" d="M572.676 356.768C572.475 359.162 574.253 361.265 576.646 361.466C579.04 361.667 581.143 359.889 581.344 357.495C581.545 355.102 579.767 352.999 577.373 352.798C574.98 352.597 572.877 354.375 572.676 356.768Z" fill="white"/>
<path fill-rule="evenodd" clip-rule="evenodd" d="M578.868 406.211C578.638 408.953 580.673 411.361 583.415 411.591C586.156 411.821 588.565 409.785 588.794 407.044C589.025 404.303 586.989 401.894 584.247 401.664C581.506 401.434 579.098 403.47 578.868 406.211Z" fill="white"/>
<path fill-rule="evenodd" clip-rule="evenodd" d="M465.397 332.321C465.397 336.211 468.551 339.365 472.441 339.365C476.332 339.365 479.485 336.211 479.485 332.321C479.485 328.431 476.332 325.277 472.441 325.277C468.551 325.277 465.397 328.431 465.397 332.321Z" fill="white"/>
<path fill-rule="evenodd" clip-rule="evenodd" d="M522.103 353.831C522.103 357.721 525.257 360.875 529.147 360.875C533.038 360.875 536.191 357.721 536.191 353.831C536.191 349.941 533.038 346.787 529.147 346.787C525.257 346.787 522.103 349.941 522.103 353.831Z" fill="white"/>
<path fill-rule="evenodd" clip-rule="evenodd" d="M503.738 401.646C503.738 403.272 505.056 404.591 506.682 404.591C508.308 404.591 509.626 403.272 509.626 401.646C509.626 400.02 508.308 398.702 506.682 398.702C505.056 398.702 503.738 400.02 503.738 401.646Z" fill="white"/>
<path fill-rule="evenodd" clip-rule="evenodd" d="M482.527 439.299C482.527 441.701 484.475 443.648 486.876 443.648C489.279 443.648 491.226 441.701 491.226 439.299C491.226 436.897 489.279 434.95 486.876 434.95C484.475 434.95 482.527 436.897 482.527 439.299Z" fill="white"/>
<path d="M584.116 448.946C583.71 448.559 583.068 448.575 582.682 448.98L582.496 449.18L582.356 449.336C582.1 449.621 581.805 449.962 581.473 450.357C580.53 451.481 579.482 452.824 578.355 454.385C575.143 458.833 571.933 464.14 568.94 470.297C560.397 487.868 555.274 508.737 555.274 532.83C555.274 533.39 555.728 533.844 556.288 533.844C556.848 533.844 557.302 533.39 557.302 532.83C557.302 509.055 562.352 488.487 570.764 471.184C573.705 465.135 576.854 459.929 579.999 455.573C581.033 454.142 581.995 452.902 582.865 451.855L583.027 451.66C583.274 451.366 583.499 451.105 583.7 450.877L583.954 450.592C584.048 450.488 584.114 450.417 584.15 450.38C584.536 449.974 584.521 449.332 584.116 448.946Z" fill="#253368"/>
<path d="M507.495 456.044C507.16 455.596 506.524 455.503 506.075 455.839C505.626 456.174 505.534 456.809 505.869 457.258C509.563 462.205 512.972 467.524 516.107 473.163C522.734 485.083 527.857 497.862 531.66 510.642C532.991 515.115 534.062 519.268 534.895 522.992L535.064 523.756C535.263 524.667 535.435 525.498 535.581 526.243L535.675 526.73L535.844 527.65C535.937 528.202 536.46 528.574 537.012 528.481C537.565 528.388 537.937 527.865 537.844 527.313L537.786 526.986C537.739 526.723 537.68 526.412 537.611 526.057L537.444 525.213C537.281 524.408 537.091 523.518 536.875 522.55L536.69 521.735C535.875 518.179 534.853 514.26 533.604 510.064C529.762 497.151 524.585 484.237 517.88 472.177C514.702 466.462 511.245 461.067 507.495 456.044Z" fill="#253368"/>
<path d="M489.772 329.513C489.384 329.885 489.356 330.492 489.697 330.897L489.741 330.947C489.761 330.968 489.804 331.013 489.869 331.083L490.119 331.356L490.264 331.516C490.7 332.003 491.208 332.589 491.78 333.274C493.423 335.239 495.255 337.603 497.23 340.368C502.882 348.28 508.537 357.811 513.817 368.968C522.609 387.545 529.457 408.732 533.607 432.55C538.646 461.473 539.481 493.069 535.356 527.36C535.289 527.916 535.685 528.421 536.241 528.488C536.798 528.555 537.303 528.159 537.369 527.602C541.518 493.114 540.678 461.32 535.605 432.202C531.423 408.2 524.519 386.839 515.651 368.1C510.317 356.831 504.601 347.197 498.88 339.189L498.437 338.572C496.673 336.129 495.025 334.005 493.524 332.197L493.337 331.973C492.798 331.328 492.313 330.767 491.888 330.29L491.774 330.162C491.641 330.014 491.522 329.883 491.417 329.77L491.206 329.544C490.818 329.139 490.176 329.125 489.772 329.513Z" fill="#253368"/>
<path d="M577.558 389.655C577.079 389.365 576.455 389.518 576.165 389.997L576.063 390.168C575.982 390.305 575.886 390.469 575.777 390.659L575.618 390.937C575.346 391.415 575.04 391.965 574.704 392.584L574.425 393.101C573.393 395.021 572.263 397.243 571.056 399.76L570.891 400.105C566.954 408.353 563.019 417.998 559.347 428.958C549.067 459.647 542.813 494.478 542.579 532.824C542.575 533.384 543.027 533.841 543.587 533.844C544.147 533.848 544.604 533.396 544.607 532.836C544.84 494.715 551.056 460.095 561.271 429.602C564.849 418.921 568.677 409.502 572.508 401.426L572.721 400.978C574.031 398.235 575.25 395.841 576.349 393.805L576.68 393.196C576.998 392.617 577.284 392.108 577.536 391.67L577.655 391.463L577.899 391.048C578.19 390.569 578.037 389.945 577.558 389.655Z" fill="#253368"/>
<path fill-rule="evenodd" clip-rule="evenodd" d="M499.503 583.136H587.167C591.906 583.136 595.783 579.259 595.783 574.52V510.565C595.783 505.826 591.906 501.949 587.167 501.949H499.503C494.765 501.949 490.887 505.826 490.887 510.565V574.52C490.887 579.259 494.765 583.136 499.503 583.136Z" fill="#253368"/>
<g clip-path="url(#clip2)">
<path d="M566.302 240.355L595.205 213.33L603.503 230.238C608.791 241.344 607.976 252.264 601.663 261.426C599.289 264.635 596.94 266.713 594.546 268.403C597.119 267.092 601.84 265.168 605.564 266.355C610.967 268.081 613.76 270.643 619.216 276.47L627.687 287.227C627.687 287.227 599.363 298.829 598.862 298.239C594.119 299.342 587.841 300.353 582.249 299.4C578.048 298.687 574.228 296.861 571.732 293.131C563.307 292.621 561.475 289.674 566.236 284.286C566.688 283.779 567.183 283.275 567.721 282.782C566.42 281.317 564.886 279.567 563.112 277.537C558.684 271.648 556.529 264.417 557.128 257.445C557.631 251.583 560.045 246.301 563.937 242.409C564.674 241.671 565.463 240.986 566.302 240.355Z" fill="url(#paint3_linear)"/>
<path d="M577.023 279.513C588.956 272.838 593.721 274.782 598.708 277.755C603.696 280.722 612.193 292.212 614.427 295.896C614.427 295.896 599.381 304.98 583.975 307.775C573.568 308.377 572.444 305.106 565.387 297.578C559.002 290.126 554.76 284.454 552.665 280.568C555.991 285.597 564.112 285.243 577.023 279.513Z" fill="url(#paint4_linear)"/>
<path d="M588.129 237.864C596.346 251.044 596.065 260.5 588.087 270.399C586.725 273.384 569.974 288.468 572.941 304.253C572.154 304.581 566.122 297.854 554.842 284.081C549.928 276.201 546.483 271.386 546.342 264.088C546.198 256.788 551.55 247.136 555.434 241.814L573.722 218.155L588.129 237.864Z" fill="url(#paint5_linear)"/>
<path d="M577.772 279.116C578.767 278.548 579.596 278.159 579.848 278.031C581.204 277.354 582.627 276.754 583.26 276.545C574.839 288.606 571.263 298.096 572.534 305.016C571.872 304.778 568.412 300.867 566.674 299.025C559.487 290.779 554.826 284.572 552.607 280.454C556.457 285.055 564.033 285.611 577.772 279.116Z" fill="#FFB511"/>
</g>
</g>
<defs>
<linearGradient id="paint0_linear" x1="34.3512" y1="526.104" x2="120.284" y2="515.339" gradientUnits="userSpaceOnUse">
<stop stop-color="#FFBA00"/>
<stop offset="1" stop-color="#FA5800"/>
</linearGradient>
<linearGradient id="paint1_linear" x1="153.35" y1="508.13" x2="94.8119" y2="583.297" gradientUnits="userSpaceOnUse">
<stop stop-color="#FFF75D"/>
<stop offset="1" stop-color="#F89800"/>
</linearGradient>
<linearGradient id="paint2_linear" x1="51.8454" y1="435.269" x2="152.004" y2="521.587" gradientUnits="userSpaceOnUse">
<stop stop-color="#FFF75D"/>
<stop offset="1" stop-color="#F89600"/>
</linearGradient>
<linearGradient id="paint3_linear" x1="617.534" y1="249.214" x2="578.346" y2="279.676" gradientUnits="userSpaceOnUse">
<stop stop-color="#FFBA00"/>
<stop offset="1" stop-color="#FA5800"/>
</linearGradient>
<linearGradient id="paint4_linear" x1="562.024" y1="290.155" x2="616.209" y2="296.894" gradientUnits="userSpaceOnUse">
<stop stop-color="#FFF75D"/>
<stop offset="1" stop-color="#F89800"/>
</linearGradient>
<linearGradient id="paint5_linear" x1="573.632" y1="219.492" x2="568.023" y2="295.063" gradientUnits="userSpaceOnUse">
<stop stop-color="#FFF75D"/>
<stop offset="1" stop-color="#F89600"/>
</linearGradient>
<clipPath id="clip0">
<rect width="686" height="688" fill="white"/>
</clipPath>
<clipPath id="clip1">
<rect width="382.469" height="382.469" fill="white" transform="translate(309.157 -61)"/>
</clipPath>
<clipPath id="clip2">
<rect width="112.824" height="112.824" fill="white" transform="matrix(-0.707107 0.707106 0.707107 0.707106 588.98 184.667)"/>
</clipPath>
</defs>
</svg>
