<svg width="138" height="138" viewBox="0 0 138 138" fill="none" xmlns="http://www.w3.org/2000/svg">
<g id="Monotone/Linearity ripple" clip-path="url(#clip0)">
<g id="Vector">
<path fill-rule="evenodd" clip-rule="evenodd" d="M122.537 56.6731C118.861 51.0782 111.332 49.5717 105.786 53.3216L102.988 55.2141C96.1429 59.8424 86.8342 57.8423 82.494 50.8113L81.1044 48.5598C81.1044 48.5598 81.1044 48.5598 81.1044 48.5598C77.5453 42.7942 69.9368 41.1151 64.2825 44.8476L61.629 46.5992C54.6288 51.2201 45.1938 48.974 41.0249 41.6948C37.4193 35.3992 29.1124 33.7159 23.3401 38.1112C22.7857 38.5333 21.9941 38.4261 21.572 37.8718C21.1498 37.3174 21.257 36.5258 21.8114 36.1036C28.7963 30.785 38.8514 32.8225 43.2146 40.4408C46.6598 46.4564 54.4545 48.3117 60.2389 44.4933L62.8923 42.7417C69.735 38.2248 78.9448 40.2574 83.2516 47.2344L84.6412 49.4858C84.6412 49.4858 84.6412 49.4858 84.6412 49.4858C88.2278 55.2961 95.9181 56.9483 101.574 53.1238L104.373 51.2313C111.084 46.6934 120.198 48.5169 124.646 55.2876C125.028 55.87 124.866 56.6523 124.284 57.0349C123.702 57.4174 122.919 57.2555 122.537 56.6731Z" fill="#91D5FF"/>
<path fill-rule="evenodd" clip-rule="evenodd" d="M118.105 78.1982C114.43 72.6033 106.9 71.0968 101.355 74.8467L98.556 76.7392C91.7113 81.3675 82.4026 79.3674 78.0624 72.3364L76.6728 70.0849C76.6728 70.0849 76.6728 70.0849 76.6728 70.0849C73.1137 64.3193 65.5052 62.6402 59.8509 66.3727L57.1974 68.1243C50.1972 72.7452 40.7622 70.4991 36.5933 63.2199C32.9877 56.9243 24.6808 55.241 18.9085 59.6363C18.3541 60.0585 17.5625 59.9512 17.1404 59.3969C16.7182 58.8425 16.8254 58.0509 17.3798 57.6287C24.3647 52.3101 34.4198 54.3476 38.783 61.9659C42.2282 67.9815 50.0229 69.8368 55.8073 66.0184L58.4607 64.2668C65.3034 59.7499 74.5132 61.7825 78.82 68.7595L80.2096 71.0109C80.2096 71.0109 80.2096 71.0109 80.2096 71.0109C83.7962 76.8212 91.4865 78.4734 97.1426 74.6489L99.9413 72.7564C106.652 68.2185 115.766 70.042 120.214 76.8127C120.597 77.3951 120.435 78.1774 119.852 78.56C119.27 78.9425 118.488 78.7806 118.105 78.1982Z" fill="#91D5FF"/>
<path fill-rule="evenodd" clip-rule="evenodd" d="M113.628 99.9452C109.952 94.3503 102.423 92.8438 96.8775 96.5937L94.0787 98.4862C87.234 103.114 77.9253 101.114 73.5851 94.0834L72.1955 91.8319C72.1955 91.8319 72.1955 91.8319 72.1955 91.8319C68.6364 86.0663 61.0279 84.3873 55.3736 88.1197L52.7201 89.8713C45.7199 94.4922 36.2849 92.2461 32.1161 84.9669C28.5104 78.6714 20.2035 76.988 14.4312 81.3833C13.8768 81.8055 13.0852 81.6983 12.6631 81.1439C12.2409 80.5895 12.3482 79.7979 12.9025 79.3757C19.8875 74.0571 29.9425 76.0946 34.3057 83.7129C37.751 89.7285 45.5456 91.5838 51.33 87.7654L53.9834 86.0139C60.8261 81.4969 70.0359 83.5295 74.3427 90.5065L75.7323 92.7579C75.7323 92.758 75.7323 92.7579 75.7323 92.7579C79.319 98.5682 87.0092 100.22 92.6653 96.3959L95.464 94.5034C102.175 89.9655 111.289 91.789 115.737 98.5598C116.119 99.1421 115.957 99.9244 115.375 100.307C114.793 100.69 114.01 100.528 113.628 99.9452Z" fill="#91D5FF"/>
</g>
</g>
<defs>
<clipPath id="clip0">
<rect width="116" height="116" fill="white" transform="translate(23.3916) rotate(11.6335)"/>
</clipPath>
</defs>
</svg>
