<svg width="117" height="117" viewBox="0 0 117 117" fill="none" xmlns="http://www.w3.org/2000/svg">
<path fill-rule="evenodd" clip-rule="evenodd" d="M66.4397 20.9665C66.4397 21.8784 66.2973 22.7571 66.0335 23.5814L90.0373 30.9483C90.933 28.2762 93.4569 26.3509 96.4305 26.3509C100.154 26.3509 103.172 29.3691 103.172 33.0923C103.172 36.5116 100.626 39.3364 97.3267 39.7747L97.2178 73.9709C101.613 74.3373 105.066 78.0206 105.066 82.5105C105.066 87.2433 101.229 91.0799 96.4962 91.0799C93.3157 91.0799 90.5399 89.3473 89.0612 86.7743L68.2737 94.2234C68.419 94.8489 68.4959 95.5008 68.4959 96.1706C68.4959 100.903 64.6593 104.74 59.9265 104.74C55.1937 104.74 51.3572 100.903 51.3572 96.1706C51.3572 95.4782 51.4393 94.8049 51.5943 94.1601L28.822 87.1662C27.8152 90.7792 24.5004 93.4301 20.5664 93.4301C15.8336 93.4301 11.9971 89.5935 11.9971 84.8606C11.9971 80.1277 15.8336 76.2911 20.5664 76.2911V40.7794C20.531 40.7799 20.4955 40.7801 20.46 40.7801C16.516 40.7801 13.3189 37.5829 13.3189 33.6389C13.3189 29.695 16.516 26.4977 20.46 26.4977C23.7608 26.4977 26.5386 28.7373 27.3567 31.7799L49.8784 24.065C49.5056 23.104 49.3011 22.0591 49.3011 20.9665C49.3011 16.2336 53.1376 12.397 57.8704 12.397C62.6032 12.397 66.4397 16.2336 66.4397 20.9665ZM65.6151 24.6392L89.793 31.9074C89.7249 32.2921 89.6893 32.688 89.6893 33.0923C89.6893 33.9812 89.8613 34.83 90.174 35.6071L65.3881 43.9589C64.412 41.9686 62.3657 40.5985 59.9993 40.5985C57.4751 40.5985 55.315 42.1576 54.4296 44.3654L27.1639 36.1048C27.4467 35.3362 27.6011 34.5056 27.6011 33.6389C27.6011 33.3943 27.5888 33.1525 27.5648 32.9141L50.3777 25.1282C51.841 27.7573 54.648 29.536 57.8704 29.536C61.2888 29.536 64.2397 27.5344 65.6151 24.6392ZM54.1034 45.4864L26.6629 37.1797C25.6352 38.9762 23.8495 40.2835 21.7416 40.6654V76.371C25.9183 76.9438 29.1357 80.5264 29.1357 84.8606C29.1357 85.2503 29.1097 85.6338 29.0594 86.0097L51.9473 93.0392C53.1492 89.9789 56.0607 87.7776 59.5062 87.6112L59.5537 52.579C56.4488 52.351 54.0008 49.7599 54.0008 46.5969C54.0008 46.2175 54.036 45.8463 54.1034 45.4864ZM60.6618 52.5592L60.6071 87.6277C63.8763 87.8846 66.6297 89.976 67.8385 92.8731L88.5188 85.6464C88.1367 84.6752 87.9269 83.6173 87.9269 82.5105C87.9269 77.93 91.5202 74.1891 96.0417 73.9528L96.1505 39.828C93.8542 39.7342 91.8541 38.4917 90.7095 36.6597L65.7893 45.0232C65.9253 45.5247 65.9979 46.0523 65.9979 46.5969C65.9979 49.6859 63.663 52.2295 60.6618 52.5592Z" fill="#91D5FF"/>
</svg>
