<svg width="118" height="117" viewBox="0 0 118 117" fill="none" xmlns="http://www.w3.org/2000/svg">
<g id="Monotone/Point-line structure">
<g id="Union">
<path d="M33.4539 13.2792C33.5431 12.9764 33.863 12.8025 34.1685 12.891C41.3448 14.9689 45.4636 22.4217 43.3679 29.5372C43.2787 29.8401 42.9588 30.0139 42.6534 29.9255C42.3479 29.837 42.1726 29.5198 42.2618 29.2169C44.1791 22.7072 40.4109 15.8888 33.8455 13.9877C33.54 13.8993 33.3647 13.5821 33.4539 13.2792Z" fill="#BAE7FF"/>
<path d="M18.0946 21.6244C18.4001 21.7129 18.5754 22.0301 18.4862 22.3329C16.5689 28.8427 20.3371 35.6609 26.9027 37.562C27.2081 37.6504 27.3834 37.9676 27.2942 38.2705C27.205 38.5733 26.8851 38.7472 26.5796 38.6587C19.4032 36.5808 15.2843 29.1282 17.38 22.0127C17.4692 21.7098 17.7891 21.536 18.0946 21.6244Z" fill="#BAE7FF"/>
<path d="M36.2304 32.9181C37.6368 31.7883 38.7228 30.2371 39.2686 28.3838C40.6954 23.5392 37.8911 18.465 33.0052 17.0503C28.1191 15.6357 23.0017 18.4161 21.5749 23.2607C20.1481 28.1053 22.9523 33.1794 27.8384 34.5941C30.4577 35.3525 33.1435 34.9053 35.2916 33.5807L46.8654 49.8132C47.0491 50.0708 47.4086 50.132 47.6685 49.9499C47.9283 49.7678 47.99 49.4113 47.8063 49.1536L36.2304 32.9181Z" fill="#BAE7FF"/>
<path d="M81.9486 51.433C86.9665 46.4578 95.1018 46.4579 100.119 51.433C105.137 56.4081 105.137 64.4744 100.119 69.4498C95.1018 74.4249 86.9665 74.4249 81.9486 69.4498C81.7236 69.2267 81.3588 69.2267 81.1338 69.4498C80.9088 69.6729 80.9088 70.0346 81.1338 70.2577C86.6017 75.679 95.4666 75.679 100.934 70.2577C106.402 64.8362 106.402 56.0464 100.934 50.6251C95.4666 45.2037 86.6017 45.2037 81.1338 50.6251C80.9088 50.8482 80.9088 51.2099 81.1338 51.433C81.3588 51.6561 81.7236 51.6561 81.9486 51.433Z" fill="#BAE7FF"/>
<path d="M97.5537 66.9058C101.154 63.336 101.154 57.5485 97.5537 53.9789C93.9536 50.4093 88.1166 50.4093 84.5164 53.9789C82.806 55.6748 81.9082 57.8712 81.823 60.0926H68.8072C68.489 60.0926 68.2311 60.3484 68.2311 60.6639C68.2311 60.9794 68.489 61.2352 68.8072 61.2352H81.8508C82.0314 63.3036 82.9199 65.3228 84.5164 66.9058C88.1166 70.4754 93.9536 70.4754 97.5537 66.9058Z" fill="#BAE7FF"/>
<path d="M33.9508 84.512C35.4108 86.1293 36.2987 88.265 36.2987 90.6063C36.2987 95.6547 32.1714 99.747 27.08 99.747C21.9886 99.747 17.8612 95.6547 17.8612 90.6063C17.8612 85.5583 21.9886 81.4658 27.08 81.4658C29.395 81.4658 31.5108 82.3119 33.1298 83.7093L45.7484 70.117C45.964 69.8849 46.3284 69.8699 46.5626 70.0836C46.7967 70.2973 46.8118 70.6587 46.5963 70.8908L33.9508 84.512Z" fill="#BAE7FF"/>
<path d="M14.6355 90.6072C14.6355 83.7923 20.2076 78.2674 27.0809 78.2674C27.3991 78.2674 27.6571 78.0117 27.6571 77.6961C27.6571 77.3806 27.3991 77.1249 27.0809 77.1249C19.5711 77.1249 13.4832 83.1612 13.4832 90.6072C13.4832 98.0535 19.5711 104.09 27.0809 104.09C34.5907 104.09 40.6785 98.0535 40.6785 90.6072C40.6785 90.2917 40.4205 90.0359 40.1023 90.0359C39.7841 90.0359 39.5261 90.2917 39.5261 90.6072C39.5261 97.4225 33.9542 102.947 27.0809 102.947C20.2076 102.947 14.6355 97.4224 14.6355 90.6072Z" fill="#BAE7FF"/>
<path d="M55.5428 51.5302C60.6341 51.5302 64.7616 55.6227 64.7616 60.6709C64.7616 65.7191 60.6341 69.8115 55.5428 69.8115C50.4514 69.8115 46.3241 65.7191 46.3241 60.6709C46.3241 55.6227 50.4514 51.5302 55.5428 51.5302Z" fill="#BAE7FF"/>
</g>
</g>
</svg>
