<svg width="116" height="117" viewBox="0 0 116 117" fill="none" xmlns="http://www.w3.org/2000/svg">
<g id="Monotone/Point-line">
<g id="Union">
<path d="M32.4234 30.9958C33.2118 31.7911 34.1434 32.354 35.1345 32.6846L26.9377 59.6333C26.8276 59.9953 27.0293 60.3787 27.3882 60.4898C27.747 60.6008 28.1272 60.3974 28.2373 60.0354L36.465 32.9853C38.5032 33.237 40.6313 32.5739 42.1958 30.9958C44.8944 28.274 44.8944 23.861 42.1958 21.1392C39.4972 18.4173 35.122 18.4173 32.4234 21.1392C29.7248 23.861 29.7248 28.274 32.4234 30.9958Z" fill="#BAE7FF"/>
<path d="M90.8969 60.2598C91.4311 60.3933 91.9898 60.4642 92.5649 60.4642C96.3812 60.4642 99.475 57.3437 99.475 53.4944C99.475 49.6452 96.3812 46.5247 92.5649 46.5247C88.7485 46.5247 85.6547 49.6452 85.6547 53.4944C85.6547 56.2799 87.2747 58.6837 89.6163 59.7996L82.4467 79.825C82.3192 80.1812 82.5021 80.5741 82.8552 80.7027C83.2082 80.8313 83.5978 80.6468 83.7253 80.2907L90.8969 60.2598Z" fill="#BAE7FF"/>
<path d="M82.7996 55.7659C82.8894 56.1335 82.6667 56.505 82.3022 56.5956L32.9362 68.8644C33.5196 71.1701 32.9167 73.7182 31.1274 75.5229C28.4288 78.2448 24.0536 78.2448 21.355 75.5229C18.6564 72.8011 18.6564 68.3881 21.355 65.6662C24.0536 62.9444 28.4288 62.9444 31.1274 65.6662C31.6928 66.2365 32.1397 66.881 32.4682 67.5686L81.977 55.2643C82.3415 55.1737 82.7098 55.3983 82.7996 55.7659Z" fill="#BAE7FF"/>
<path d="M85.1294 94.1804C82.4308 96.9023 78.0556 96.9023 75.357 94.1804C72.6584 91.4586 72.6584 87.0456 75.357 84.3237C78.0556 81.6019 82.4308 81.6019 85.1294 84.3237C87.828 87.0456 87.828 91.4586 85.1294 94.1804Z" fill="#BAE7FF"/>
</g>
</g>
</svg>
