<svg width="161" height="160" viewBox="0 0 161 160" fill="none" xmlns="http://www.w3.org/2000/svg">
<g id="Monotone/Rectangle with circle vertex" clip-path="url(#clip0)">
<g id="Vector">
<path d="M32.2934 59.0213L32.2862 59.0253C27.9258 61.437 26.3638 66.9586 28.7972 71.3581C31.2306 75.7577 36.7379 77.3691 41.0983 74.9574L41.1055 74.9534C45.4658 72.5417 47.0279 67.0201 44.5945 62.6206C42.1611 58.221 36.6537 56.6096 32.2934 59.0213Z" fill="#91D5FF"/>
<path d="M48.0217 87.4577L48.0144 87.4617C43.6541 89.8734 42.092 95.395 44.5254 99.7945C46.9588 104.194 52.4662 105.805 56.8265 103.394L56.8338 103.39C61.1941 100.978 62.7562 95.4565 60.3228 91.057C57.8894 86.6574 52.382 85.046 48.0217 87.4577Z" fill="#91D5FF"/>
<path d="M63.7499 115.894L63.7427 115.898C59.3824 118.31 57.8203 123.831 60.2537 128.231C62.6871 132.63 68.1945 134.242 72.5548 131.83L72.562 131.826C76.9223 129.414 78.4844 123.893 76.051 119.493C73.6176 115.094 68.1102 113.482 63.7499 115.894Z" fill="#91D5FF"/>
<path d="M60.1887 43.5923L60.1815 43.5963C55.8212 46.008 54.2591 51.5296 56.6925 55.9292C59.1259 60.3287 64.6333 61.9401 68.9936 59.5284L69.0008 59.5244C73.3611 57.1127 74.9232 51.5911 72.4898 47.1916C70.0564 42.7921 64.549 41.1806 60.1887 43.5923Z" fill="#91D5FF"/>
<path d="M75.917 72.0287L75.9097 72.0327C71.5494 74.4444 69.9873 79.966 72.4207 84.3655C74.8541 88.7651 80.3615 90.3765 84.7218 87.9648L84.7291 87.9608C89.0894 85.5491 90.6515 80.0275 88.2181 75.628C85.7847 71.2284 80.2773 69.617 75.917 72.0287Z" fill="#91D5FF"/>
<path d="M91.6452 100.465L91.638 100.469C87.2777 102.881 85.7156 108.402 88.149 112.802C90.5824 117.201 96.0898 118.813 100.45 116.401L100.457 116.397C104.818 113.985 106.38 108.464 103.946 104.064C101.513 99.6648 96.0055 98.0534 91.6452 100.465Z" fill="#91D5FF"/>
<path d="M88.084 28.1633L88.0768 28.1673C83.7165 30.579 82.1544 36.1006 84.5878 40.5002C87.0212 44.8997 92.5286 46.5111 96.8889 44.0994L96.8961 44.0954C101.256 41.6837 102.819 36.1621 100.385 31.7626C97.9517 27.3631 92.4444 25.7516 88.084 28.1633Z" fill="#91D5FF"/>
<path d="M103.812 56.5997L103.805 56.6037C99.4447 59.0154 97.8827 64.537 100.316 68.9365C102.749 73.3361 108.257 74.9475 112.617 72.5358L112.624 72.5318C116.985 70.1201 118.547 64.5985 116.113 60.199C113.68 55.7994 108.173 54.188 103.812 56.5997Z" fill="#91D5FF"/>
<path d="M119.541 85.0361L119.533 85.0401C115.173 87.4518 113.611 92.9734 116.044 97.3729C118.478 101.772 123.985 103.384 128.345 100.972L128.353 100.968C132.713 98.5565 134.275 93.0349 131.842 88.6353C129.408 84.2358 123.901 82.6244 119.541 85.0361Z" fill="#91D5FF"/>
</g>
<path id="Ellipse" opacity="0.55" d="M51.8643 71.6282C56.3532 55.7745 72.8127 46.6706 88.6277 51.2943C104.443 55.9179 113.624 72.5181 109.135 88.3719C104.647 104.226 88.187 113.329 72.372 108.706C56.5571 104.082 47.3754 87.482 51.8643 71.6282Z" fill="#91D5FF"/>
</g>
<defs>
<clipPath id="clip0">
<rect width="117" height="118" fill="white" transform="translate(0.752441 56.6852) rotate(-28.9471)"/>
</clipPath>
</defs>
</svg>
