<svg width="118" height="118" viewBox="0 0 118 118" fill="none" xmlns="http://www.w3.org/2000/svg">
<g id="Monotone/Rhombus collection">
<g id="Union">
<path fill-rule="evenodd" clip-rule="evenodd" d="M59.5185 9.52942L26.3513 42.6367L42.7442 58.9999L26.3513 75.3632L59.5185 108.47L92.6858 75.3632L76.2928 58.9999L92.6858 42.6367L59.5185 9.52942ZM74.9879 57.6974L90.076 42.6367L59.5185 12.1345L28.9612 42.6367L44.0491 57.6974L59.5185 42.256L74.9879 57.6974ZM45.354 58.9999L59.5185 44.8611L73.683 58.9999L59.5185 73.1388L45.354 58.9999ZM44.0491 60.3025L59.5185 75.7439L74.9879 60.3025L90.076 75.3632L59.5185 105.865L28.9612 75.3632L44.0491 60.3025Z" fill="#91D5FF"/>
<path d="M19.0712 71.6757L6.33789 58.9999L19.0712 46.3242L31.8047 58.9999L19.0712 71.6757Z" fill="#91D5FF"/>
<path d="M86.3105 58.9999L99.0439 71.6757L111.777 58.9999L99.0439 46.3242L86.3105 58.9999Z" fill="#91D5FF"/>
</g>
</g>
</svg>
