<svg width="118" height="118" viewBox="0 0 118 118" fill="none" xmlns="http://www.w3.org/2000/svg">
<g id="Monotone/White arrow">
<path id="Fill 3" fill-rule="evenodd" clip-rule="evenodd" d="M56.4635 66.3776C56.5952 66.3776 56.7275 66.3973 56.8564 66.4383C57.2676 66.5684 57.5885 66.8936 57.7136 67.3075L64.3639 89.343C64.6715 90.3634 65.5696 90.5207 65.8375 90.5449C66.1059 90.5699 67.017 90.5734 67.5002 89.6234L97.9062 29.8751C98.2068 29.2849 98.15 28.6156 97.7547 28.0848C97.3598 27.5536 96.7365 27.3087 96.0859 27.4289L29.2013 39.8175C28.1615 40.0104 27.9027 40.8809 27.8481 41.1433C27.7933 41.4054 27.6833 42.3074 28.5597 42.9005L48.2394 56.2249C48.5911 56.4628 48.8053 56.8575 48.8143 57.2825C48.823 57.7077 48.6251 58.1109 48.2835 58.3631L20.2886 79.0513C19.997 79.2671 19.9297 79.6702 20.1357 79.9695L26.2722 88.8782C26.4146 89.085 26.6146 89.1434 26.7211 89.1594C26.8273 89.1746 27.0356 89.1795 27.233 89.0242L55.6573 66.6568C55.8901 66.4735 56.175 66.3776 56.4635 66.3776ZM65.9959 93.1697C65.8662 93.1697 65.7362 93.1642 65.6053 93.1523C63.8445 92.9949 62.3759 91.7971 61.8637 90.101L55.767 69.8986L28.8455 91.0836C28.1374 91.6409 27.2208 91.8838 26.3296 91.7476C25.4391 91.6124 24.6347 91.1086 24.1231 90.3657L17.9863 81.4568C16.9739 79.9867 17.3044 78.0047 18.7388 76.9442L45.2448 57.3564L27.098 45.0701C25.6193 44.0692 24.9269 42.3595 25.2914 40.6087C25.6558 38.8579 26.9721 37.5682 28.7268 37.2436L95.6115 24.8546C97.2368 24.5527 98.86 25.1917 99.8484 26.5196C100.836 27.8471 100.984 29.5886 100.233 31.0648L69.8269 90.8131C69.0828 92.2741 67.6076 93.1697 65.9959 93.1697Z" fill="#91D5FF"/>
</g>
</svg>
